<svg xmlns="http://www.w3.org/2000/svg" width="17.461" height="21" viewBox="0 0 17.461 21">
  <path id="_" data-name="" d="M2.25,18.33A12.73,12.73,0,0,1,0,11.375C0,7.289,2.715,5.127,5.388,5.127c1.406,0,2.592.907,3.492.907.832,0,2.156-.961,3.779-.961A5.1,5.1,0,0,1,16.9,7.156a4.757,4.757,0,0,0-2.306,4,4.63,4.63,0,0,0,2.865,4.245,11.669,11.669,0,0,1-1.474,2.977c-.914,1.281-1.882,2.589-3.328,2.589-1.474,0-1.842-.841-3.52-.841-1.651,0-2.237.867-3.56.867S3.314,19.8,2.25,18.33ZM8.7,4.819a1.748,1.748,0,0,1-.042-.374A4.483,4.483,0,0,1,9.835,1.6,4.8,4.8,0,0,1,12.987,0a1.927,1.927,0,0,1,.041.414,4.717,4.717,0,0,1-1.132,2.937,4.238,4.238,0,0,1-2.906,1.5A1.63,1.63,0,0,1,8.7,4.819Z"/>
</svg>
