<svg xmlns="http://www.w3.org/2000/svg" width="129.584" height="43.257" viewBox="0 0 129.584 43.257">
  <g id="Group_2561" data-name="Group 2561" transform="translate(23059.5 13947.24)">
    <g id="Group_66" data-name="Group 66" transform="translate(-23048.082 -13940.451)">
      <path id="Path_224" data-name="Path 224" d="M-759.212,575.778V575c0-.03.011-.061.013-.091.022-.295.037-.59.065-.884a9.006,9.006,0,0,1,.345-1.765,8.042,8.042,0,0,1,3.306-4.576,7.233,7.233,0,0,1,1.877-.881,7.585,7.585,0,0,1,1.537-.292,4.879,4.879,0,0,1,1.255.04,12.1,12.1,0,0,1,2,.56c.582.205,1.168.4,1.756.59a1.454,1.454,0,0,0,.937.033c.539-.182,1.081-.354,1.621-.53.518-.17,1.03-.36,1.554-.507a6.511,6.511,0,0,1,2.411-.262,9.718,9.718,0,0,1,1.947.374,6.67,6.67,0,0,1,3.345,2.265c.079.1.154.206.234.312l-.088.057a8.123,8.123,0,0,0-1.343,1.03,5.939,5.939,0,0,0-1.863,3.938,7.36,7.36,0,0,0,.01,1.267,6.242,6.242,0,0,0,.371,1.669,6.716,6.716,0,0,0,3.186,3.538c.167.092.343.168.518.253,0,.015-.006.03-.011.044a19.507,19.507,0,0,1-.783,1.933,18.6,18.6,0,0,1-2.837,4.21,5.719,5.719,0,0,1-1.39,1.176,3.547,3.547,0,0,1-1.852.524,5.387,5.387,0,0,1-1.721-.338c-.418-.145-.827-.314-1.244-.459a6.3,6.3,0,0,0-1.9-.363,6.431,6.431,0,0,0-1.827.236c-.5.131-.968.333-1.448.51a7.619,7.619,0,0,1-1.379.389c-.127.021-.254.039-.381.059h-.5a.128.128,0,0,0-.035-.014,3.262,3.262,0,0,1-1.368-.47,6.13,6.13,0,0,1-1.3-1.058,18.572,18.572,0,0,1-2.3-3.007,18.354,18.354,0,0,1-2.075-4.749,15.6,15.6,0,0,1-.478-2.228c-.058-.431-.09-.865-.131-1.3C-759.2,576.082-759.2,575.93-759.212,575.778Z" transform="translate(759.212 -559.38)" fill="#fff"/>
      <path id="Path_225" data-name="Path 225" d="M-726.168,554.855c-.009-.117-.023-.235-.027-.354a5.987,5.987,0,0,1,.924-3.326,6.836,6.836,0,0,1,3.472-2.91,6.248,6.248,0,0,1,1.411-.384c.133-.019.267-.028.408-.042.008.1.019.2.023.287a6.128,6.128,0,0,1-1.281,4.039A7.719,7.719,0,0,1-723.13,554a5.084,5.084,0,0,1-1.79.777,4.467,4.467,0,0,1-1.206.082C-726.137,554.862-726.147,554.859-726.168,554.855Z" transform="translate(738.697 -547.84)" fill="#fff"/>
    </g>
    <text id="Download_on_the" data-name="Download on the" transform="translate(-23014.773 -13933.078)" fill="#fff" font-size="8" font-family="MyriadPro-Regular, Myriad Pro" letter-spacing="0.04em"><tspan x="0" y="0">Download on the</tspan></text>
    <text id="App_Store" data-name="App Store" transform="translate(-23016.773 -13917.947)" fill="#fff" font-size="13" font-family="Poppins-Medium, Poppins" font-weight="500"><tspan x="0" y="0">App Store</tspan></text>
    <rect id="Rectangle_1" data-name="Rectangle 1" width="128.583" height="42.257" rx="9.308" transform="translate(-23059 -13946.74)" fill="none" stroke="#fff" stroke-width="1"/>
  </g>
</svg>
