<svg xmlns="http://www.w3.org/2000/svg" width="286.112" height="94.697" viewBox="0 0 286.112 94.697">
  <g id="Component_21_5" data-name="Component 21 – 5" transform="translate(0.5 0.5)">
    <g id="Group_66" data-name="Group 66" transform="translate(24.209 13.946)">
      <path id="Path_224" data-name="Path 224" d="M-759.212,587.181v-1.726c.01-.067.024-.134.029-.2.048-.653.082-1.308.144-1.959a19.953,19.953,0,0,1,.764-3.913,17.832,17.832,0,0,1,7.331-10.146,16.036,16.036,0,0,1,4.161-1.953,16.811,16.811,0,0,1,3.408-.648,10.8,10.8,0,0,1,2.784.09,26.823,26.823,0,0,1,4.432,1.242c1.291.455,2.591.887,3.893,1.308a3.224,3.224,0,0,0,2.078.073c1.195-.4,2.4-.784,3.594-1.176,1.148-.377,2.285-.8,3.447-1.125a14.435,14.435,0,0,1,5.347-.58,21.575,21.575,0,0,1,4.318.829,14.792,14.792,0,0,1,7.417,5.022c.176.223.342.456.518.691-.08.051-.136.09-.195.126a17.987,17.987,0,0,0-2.978,2.284,13.168,13.168,0,0,0-4.13,8.731,16.354,16.354,0,0,0,.022,2.809,13.855,13.855,0,0,0,.823,3.7,14.892,14.892,0,0,0,7.065,7.845c.37.2.761.372,1.148.56-.008.033-.014.065-.025.1a43.345,43.345,0,0,1-1.737,4.287,41.239,41.239,0,0,1-6.291,9.334,12.682,12.682,0,0,1-3.083,2.608,7.865,7.865,0,0,1-4.107,1.163,11.948,11.948,0,0,1-3.817-.75c-.926-.322-1.833-.7-2.759-1.017a13.969,13.969,0,0,0-4.211-.8,14.253,14.253,0,0,0-4.052.522c-1.1.29-2.146.738-3.21,1.132a16.892,16.892,0,0,1-3.057.862c-.281.047-.563.087-.845.131h-1.1a.289.289,0,0,0-.077-.031,7.233,7.233,0,0,1-3.034-1.043,13.59,13.59,0,0,1-2.879-2.345,41.18,41.18,0,0,1-5.111-6.667,40.694,40.694,0,0,1-4.6-10.529,34.6,34.6,0,0,1-1.06-4.94c-.129-.955-.2-1.918-.29-2.878C-759.175,587.856-759.189,587.518-759.212,587.181Z" transform="translate(759.212 -550.821)"/>
      <path id="Path_225" data-name="Path 225" d="M-726.131,563.394c-.02-.259-.051-.521-.06-.784a13.272,13.272,0,0,1,2.05-7.376,15.156,15.156,0,0,1,7.7-6.452,13.843,13.843,0,0,1,3.129-.85c.294-.042.592-.061.9-.092.018.227.041.432.051.637a13.587,13.587,0,0,1-2.84,8.956,17.114,17.114,0,0,1-4.2,4.075,11.27,11.27,0,0,1-3.97,1.723,9.894,9.894,0,0,1-2.674.181C-726.063,563.41-726.085,563.4-726.131,563.394Z" transform="translate(753.912 -547.84)"/>
    </g>
    <text id="Download_on_the" data-name="Download on the" transform="translate(103.094 35.425)" fill="#161615" font-size="18" font-family="MyriadPro-Regular, Myriad Pro" letter-spacing="0.04em"><tspan x="0" y="0">Download on the</tspan></text>
    <text id="App_Store" data-name="App Store" transform="translate(93.631 66.803)" fill="#161615" font-size="32" font-family="Poppins-Medium, Poppins" font-weight="500"><tspan x="0" y="0">App Store</tspan></text>
    <rect id="Rectangle_1" data-name="Rectangle 1" width="285.112" height="93.697" rx="9.308" fill="none" stroke="#000" stroke-width="1"/>
  </g>
</svg>
