<svg xmlns="http://www.w3.org/2000/svg" width="161" height="164" viewBox="0 0 161 164">
  <g id="Group_2394" data-name="Group 2394" transform="translate(-0.281 0.467)">
    <g id="Rectangle_685" data-name="Rectangle 685" transform="translate(0.281 -0.467)" fill="#fff" stroke="#5b9c00" stroke-width="0.5">
      <rect width="161" height="164" rx="9" stroke="none"/>
      <rect x="0.25" y="0.25" width="160.5" height="163.5" rx="8.75" fill="none"/>
    </g>
    <text id="Bar" transform="translate(19.294 111.182)" fill="#d8620b" font-size="14" font-family="Montserrat-SemiBold, Montserrat" font-weight="600"><tspan x="0" y="0">Bar</tspan></text>
    <g id="Ellipse_159" data-name="Ellipse 159" transform="translate(13.281 14.533)" fill="#d8620b" stroke="#5b9c00" stroke-width="0.4">
      <circle cx="33" cy="33" r="33" stroke="none"/>
      <circle cx="33" cy="33" r="32.8" fill="none"/>
    </g>
    <text id="There_is_access_to_a_bar_in_this_facility" data-name="There is access to a bar
in this facility" transform="translate(22.281 129.533)" fill="#343434" font-size="10" font-family="Montserrat-SemiBold, Montserrat" font-weight="600"><tspan x="0" y="0">There is access to a bar</tspan><tspan x="0" y="14">in this facility</tspan></text>
    <g id="Group_2393" data-name="Group 2393" transform="translate(29.905 30.87)">
      <path id="Path_3762" data-name="Path 3762" d="M1161.266,108.442h-6.552c-.6-.453-.205-1-.143-1.531h-1.393c.05.208.1.4.145.6a.784.784,0,0,1-.278.933h-6.552c-.6-.453-.205-1-.143-1.531h-1.393c.05.208.1.4.145.6a.784.784,0,0,1-.279.933h-6.552c-.6-.453-.206-1-.14-1.542h-2.479c-.654,0-.785-.132-.785-.789q0-6.166,0-12.332a.444.444,0,0,0-.261-.472,1.491,1.491,0,0,1-.71-1.73,1.548,1.548,0,0,1,1.6-1.124q8.6,0,17.209.006a.4.4,0,0,0,.447-.29c.326-.8.672-1.6,1.02-2.388a.431.431,0,0,0-.022-.441,1.761,1.761,0,0,1-.054-1.865,2.31,2.31,0,0,0,.3-1.366c-.008-.278-.005-.557,0-.835a1.541,1.541,0,1,1,3.081,0c.007.492-.008.985.008,1.477a.833.833,0,0,0,.13.407,1.98,1.98,0,0,1,.1,2.181.435.435,0,0,0-.018.441c.314.714.619,1.432.926,2.149.23.535.229.536.8.517a.594.594,0,0,0,.112-.032c0-.448.01-.9,0-1.343a2.358,2.358,0,0,1,.674-1.778,1.259,1.259,0,0,0,.357-.933c0-.289,0-.578,0-.867,0-.531.162-.7.682-.7h.282c.321-.893-.209-1.4-.8-1.865l.742-.758c.292.3.611.589.88.919a1.255,1.255,0,0,1,.256.617,9.489,9.489,0,0,1,.011,1.087h.368c.484,0,.656.176.66.657,0,.257.012.515,0,.771a1.481,1.481,0,0,0,.435,1.163,2.152,2.152,0,0,1,.594,1.517c0,.471,0,.942.006,1.413,0,.091.039.234.1.263a1.844,1.844,0,0,1,.921,1.091v.643a1.692,1.692,0,0,1-.785,1c-.225.1-.247.24-.246.447q.007,6.224,0,12.448c0,.522-.167.687-.692.688H1161.4c.053.219.1.414.147.609A.784.784,0,0,1,1161.266,108.442Zm2.354-6.674V93.561H1135.91v8.207h2.526V102.8h-2.521v1.021h2.527v1.033h-2.534v1.016c1.009,0,2,0,2.994,0a.314.314,0,0,0,.148-.048,1.7,1.7,0,0,0,.956-1.554c-.009-1.424,0-2.848,0-4.272,0-.092-.011-.184-.019-.292-.495,0-.965,0-1.435,0a.525.525,0,0,1-.6-.587c-.006-.492-.008-.985,0-1.477a1.528,1.528,0,0,1,1.536-1.53q2.055-.015,4.11,0a1.53,1.53,0,0,1,1.544,1.555c.007.46,0,.921,0,1.381,0,.482-.176.657-.658.659-.457,0-.913,0-1.387,0,0,1.639-.032,3.243.014,4.845a1.429,1.429,0,0,0,1.488,1.323c.792,0,1.585,0,2.376,0a.643.643,0,0,0,.305-.058,1.7,1.7,0,0,0,.949-1.589c-.016-1.253,0-2.505,0-3.758V99.7c-.5,0-.966,0-1.434,0-.426,0-.616-.185-.62-.6-.005-.492-.009-.985,0-1.477a1.526,1.526,0,0,1,1.516-1.517q2.071-.018,4.142,0a1.527,1.527,0,0,1,1.532,1.534c.009.46,0,.921,0,1.381,0,.506-.171.677-.67.679-.456,0-.912,0-1.379,0,0,1.627-.022,3.211.009,4.793a1.451,1.451,0,0,0,1.477,1.375c.792,0,1.584,0,2.376,0a.706.706,0,0,0,.335-.064,1.7,1.7,0,0,0,.94-1.594c-.017-1.392,0-2.784-.005-4.175,0-.1-.009-.207-.015-.332-.5,0-.982.005-1.462,0a.518.518,0,0,1-.576-.577c-.006-.492-.008-.985,0-1.478a1.532,1.532,0,0,1,1.56-1.539q2.039-.012,4.078,0a1.53,1.53,0,0,1,1.552,1.546c.008.45,0,.9,0,1.349,0,.54-.164.7-.714.7h-1.338c0,1.615-.015,3.178.006,4.741a1.468,1.468,0,0,0,1.495,1.427h2.582v-1.04H1161.1V103.8h2.529v-1.021h-2.535v-1.01Zm-13.884-9.26H1163.9a1.584,1.584,0,0,0,.352-.014.51.51,0,0,0,0-1,1.075,1.075,0,0,0-.256-.012H1135.54c-.433,0-.673.185-.673.513s.24.511.673.514h14.2ZM1139.043,107.3l.079.1H1144a1.584,1.584,0,0,0-.723-.848,2.569,2.569,0,0,1-1.221-2.266c0-1.4,0-2.8,0-4.2v-.351h-1.028v.368c0,1.337-.019,2.675.006,4.012a2.758,2.758,0,0,1-1.341,2.533A4.278,4.278,0,0,0,1139.043,107.3Zm13.2.1a1.694,1.694,0,0,0-.724-.846,2.579,2.579,0,0,1-1.235-2.291c.005-1.4,0-2.8,0-4.2V99.73h-1.028c0,1.513,0,3,0,4.487a3.358,3.358,0,0,1-.027.512,2.592,2.592,0,0,1-1.246,1.855,1.526,1.526,0,0,0-.679.817Zm8.214,0a1.6,1.6,0,0,0-.715-.846,2.582,2.582,0,0,1-1.235-2.291c.005-1.4,0-2.8,0-4.2v-.33h-1.028c0,1.513,0,3,0,4.487a3.325,3.325,0,0,1-.027.512,2.592,2.592,0,0,1-1.246,1.855,1.529,1.529,0,0,0-.68.818Zm1.144-21.564a1.89,1.89,0,0,0-.009.193,2.605,2.605,0,0,1-.745,2.108.921.921,0,0,0-.252.54c-.032.582-.012,1.167-.012,1.749h3.063c0-.451-.015-.878,0-1.3a1.546,1.546,0,0,0-.449-1.191,2.155,2.155,0,0,1-.582-1.52c0-.189,0-.378,0-.575Zm-17.483,12.824c0-.357.009-.677,0-1a.5.5,0,0,0-.525-.527c-1.357-.007-2.714,0-4.071,0a.462.462,0,0,0-.513.392,10.39,10.39,0,0,0-.011,1.134Zm8.219,0c0-.365.022-.717-.007-1.064a.478.478,0,0,0-.522-.459q-2.036-.007-4.071,0a.462.462,0,0,0-.509.4,10.505,10.505,0,0,0-.01,1.128Zm8.225,0c0-.356.01-.686,0-1.015a.49.49,0,0,0-.508-.51q-2.052-.012-4.1,0a.476.476,0,0,0-.514.468c-.025.347-.006.7-.006,1.058Zm-3.747-10.344h-1.753l-.905,2.12h3.565Zm.15-1.986a1.027,1.027,0,1,0-1.014,1.032A1.035,1.035,0,0,0,1156.961,86.334Zm-.516-2.024c0-.36.013-.723,0-1.085a.507.507,0,0,0-1.013,0c-.017.37,0,.742,0,1.089Z" transform="translate(-1133.838 -76.561)" fill="#f8f8f8"/>
      <path id="Path_3763" data-name="Path 3763" d="M1165.692,62.171a1.651,1.651,0,0,1-1.228,1.181,2.771,2.771,0,0,1-.542.038q-7.9,0-15.8,0h-.417c0,.34-.008.658.006.975,0,.065.1.122.134.191a2.466,2.466,0,0,1,.357.678,1.632,1.632,0,0,0,.392.89,2.422,2.422,0,0,1,.646,1.979,1.011,1.011,0,0,1-.975.936q-1.075.025-2.151,0a1.007,1.007,0,0,1-.972-.9,2.4,2.4,0,0,1,.621-1.986,1.515,1.515,0,0,0,.411-.949.8.8,0,0,1,.243-.53.653.653,0,0,0,.26-.658c-.009-.191,0-.384,0-.6h-3.6c0,.316-.008.633.006.95,0,.065.095.123.133.191a2.454,2.454,0,0,1,.358.677,1.633,1.633,0,0,0,.391.89,2.422,2.422,0,0,1,.647,1.979,1.011,1.011,0,0,1-.974.936q-1.075.025-2.151,0a1.013,1.013,0,0,1-.976-.934,2.6,2.6,0,0,1,.633-1.99,3.51,3.51,0,0,0,.391-.882,1.779,1.779,0,0,1,.3-.605.543.543,0,0,0,.212-.485c-.014-.234,0-.469,0-.728h-3.6c0,.315-.008.632.006.949,0,.065.094.123.133.192a2.392,2.392,0,0,1,.358.677,1.669,1.669,0,0,0,.412.916,2.4,2.4,0,0,1,.623,1.986,1,1,0,0,1-.969.906q-1.075.025-2.151,0a1.013,1.013,0,0,1-.977-.933,2.6,2.6,0,0,1,.632-1.99,3.509,3.509,0,0,0,.392-.882,1.785,1.785,0,0,1,.3-.606.545.545,0,0,0,.213-.485c-.014-.234,0-.47,0-.753h-.319c-.6,0-1.2.013-1.8-.005a1.54,1.54,0,0,1,0-3.077c.128-.005.257,0,.385,0q14.016,0,28.033-.012a1.8,1.8,0,0,1,1.962,1.232Zm-24.139.17h16.415v-.988h-16.415Zm-3.112-1c-1.049,0-2.072-.007-3.095,0a.493.493,0,0,0-.486.5.506.506,0,0,0,.5.517c.266.014.534,0,.8,0h2.278Zm22.639,1.025c1.018,0,2,0,2.981,0,.373,0,.6-.207.6-.518s-.234-.506-.611-.507q-1.377,0-2.754,0a2.086,2.086,0,0,0-.216.023Zm-23.189,3.356a2.824,2.824,0,0,1-.735,1.276,1.193,1.193,0,0,0-.222,1.006h2.018a1.448,1.448,0,0,0-.3-1.119C1138.378,66.512,1138.145,66.111,1137.892,65.719Zm5.687,2.286a1.446,1.446,0,0,0-.4-1.233,3.512,3.512,0,0,1-.432-.667,2.189,2.189,0,0,1-.141-.372c-.255.388-.509.8-.787,1.192a1.367,1.367,0,0,0-.258,1.08Zm2.6-.009h2.108a4.2,4.2,0,0,0-.259-.908c-.266-.48-.6-.923-.85-1.3a8.881,8.881,0,0,1-.629,1.012A1.5,1.5,0,0,0,1146.18,68Zm-5.685-5.647v-.994h-.988v.994Zm18.532,0h.992v-.986h-.992Z" transform="translate(-1133.832 -60.296)" fill="#f8f8f8"/>
    </g>
  </g>
</svg>
