<svg xmlns="http://www.w3.org/2000/svg" width="81.137" height="81.739" viewBox="0 0 81.137 81.739">
  <g id="Group_2545" data-name="Group 2545" transform="translate(-396 -1269.257)">
    <g id="Group_1145" data-name="Group 1145" transform="translate(2114.471 2123.363)">
      <path id="Path_2616" data-name="Path 2616" d="M-1607.759-402.384h-17.784a14.674,14.674,0,0,1-14.778-14.554q0-8.7,0-17.408a2.94,2.94,0,0,1,2.614-3.035,2.968,2.968,0,0,1,3.232,2.273,5.41,5.41,0,0,1,.076,1.177q.007,8.476,0,16.952a8.772,8.772,0,0,0,8.952,8.759q17.738-.008,35.476,0a8.772,8.772,0,0,0,8.941-8.77c0-5.772-.008-11.545.005-17.317a2.941,2.941,0,0,1,4.026-2.885,2.706,2.706,0,0,1,1.879,2.583c.027,6.258.2,12.524-.053,18.773-.308,7.48-6.977,13.437-14.625,13.45Q-1598.774-402.371-1607.759-402.384Z" transform="translate(-70.201 -369.986)"/>
      <path id="Path_2617" data-name="Path 2617" d="M-1677.9-847c-.279.268-.52.489-.75.721q-17.244,17.375-34.479,34.757a3.069,3.069,0,0,1-3.316,1.076,2.908,2.908,0,0,1-1.331-4.657c.193-.232.416-.439.629-.654l36.736-37c1.794-1.807,3.23-1.8,5.035.013q18.433,18.562,36.87,37.119a3.059,3.059,0,0,1,1,3.353,2.875,2.875,0,0,1-4.584,1.3c-.255-.212-.481-.459-.716-.7l-34.292-34.56C-1677.35-846.477-1677.611-846.719-1677.9-847Z" transform="translate(0)"/>
    </g>
    <text id="Buy" transform="translate(418 1328)" fill="#020202" font-size="19" font-family="Montserrat" font-weight="500">Buy</text>
  </g>
</svg>
