<svg xmlns="http://www.w3.org/2000/svg" width="161" height="164" viewBox="0 0 161 164">
  <g id="Group_2383" data-name="Group 2383" transform="translate(-0.427 0.467)">
    <g id="Rectangle_679" data-name="Rectangle 679" transform="translate(0.427 -0.467)" fill="#fff" stroke="#5b9c00" stroke-width="0.5">
      <rect width="161" height="164" rx="9" stroke="none"/>
      <rect x="0.25" y="0.25" width="160.5" height="163.5" rx="8.75" fill="none"/>
    </g>
    <text id="Car_Park" data-name="Car Park" transform="translate(19.294 111.182)" font-size="14" font-family="Montserrat-SemiBold, Montserrat" font-weight="600"><tspan x="0" y="0">Car Park</tspan></text>
    <g id="Ellipse_153" data-name="Ellipse 153" transform="translate(13.427 14.533)" stroke="#5b9c00" stroke-width="0.4">
      <circle cx="33" cy="33" r="33" stroke="none"/>
      <circle cx="33" cy="33" r="32.8" fill="none"/>
    </g>
    <text id="There_is_a_car_park_in_this_facility" data-name="There is a car park in
this facility" transform="translate(22.426 129.533)" fill="#343434" font-size="10" font-family="Montserrat-SemiBold, Montserrat" font-weight="600"><tspan x="0" y="0">There is a car park in</tspan><tspan x="0" y="14">this facility</tspan></text>
    <g id="Group_2382" data-name="Group 2382" transform="translate(28.941 29.905)">
      <path id="Path_3712" data-name="Path 3712" d="M455.806,1145.1v-23.186a2.427,2.427,0,0,1,.952-1.134q7.92-4.625,15.828-9.271a1.75,1.75,0,0,1,1.894.007q7.912,4.64,15.825,9.276a1.772,1.772,0,0,1,.946,1.643q-.008,11.123,0,22.247a1.07,1.07,0,0,1-1.179,1.212,13.653,13.653,0,0,1-1.59-.012,1.782,1.782,0,0,1-.843-.318,1.108,1.108,0,0,1-.329-.976q.005-9.289,0-18.579c0-.56-.072-.632-.637-.632h-26.3c-.556,0-.627.073-.627.642q0,9.307,0,18.614a1.109,1.109,0,0,1-1.247,1.263c-.45.006-.9-.015-1.349.005A1.233,1.233,0,0,1,455.806,1145.1Z" transform="translate(-455.806 -1111.231)" fill="#f8f8f8"/>
      <path id="Path_3713" data-name="Path 3713" d="M505.112,1233.7c.279-.674.545-1.322.816-1.968a3.769,3.769,0,0,1,3.465-2.319q4.636,0,9.272,0a3.778,3.778,0,0,1,3.469,2.317c.274.654.541,1.311.815,1.977.617-.138,1.224-.413,1.786,0a1.583,1.583,0,0,1,.53.689c.292.8-.141,1.508-1.185,2.019.14.571.316,1.141.413,1.724a16.742,16.742,0,0,1,.26,2.259c.04,1.44.014,2.882.011,4.324a1.785,1.785,0,0,1-1.872,1.9,4.956,4.956,0,0,1-.895-.056,1.7,1.7,0,0,1-1.382-1.557c-.018-.319,0-.64,0-.981H507.462c0,.252,0,.5,0,.752a1.719,1.719,0,0,1-1.581,1.813,2.106,2.106,0,0,1-2.169-.642,1.884,1.884,0,0,1-.385-1c-.035-1.729-.087-3.463.02-5.186a23.929,23.929,0,0,1,.622-3.206c.009-.043.02-.086.025-.11a6,6,0,0,1-.73-.475,1.5,1.5,0,0,1-.384-1.789,1.326,1.326,0,0,1,1.564-.634C504.656,1233.587,504.866,1233.642,505.112,1233.7Zm8.906,2.851c2.307,0,4.614.005,6.92,0,.827,0,1.2-.521.9-1.278-.462-1.177-.93-2.354-1.45-3.505a2.036,2.036,0,0,0-1.951-1.253q-4.412-.02-8.824,0a1.956,1.956,0,0,0-1.86,1.112c-.583,1.235-1.082,2.513-1.571,3.789a.807.807,0,0,0,.81,1.133c.138.007.277.007.415.007Zm6.185,2.53v0c-.484,0-.969-.01-1.453,0a.667.667,0,0,0-.7.7c-.013.369-.012.738,0,1.107a.66.66,0,0,0,.683.712q1.453.027,2.906,0a.673.673,0,0,0,.7-.732c.012-.346.01-.692,0-1.038a.7.7,0,0,0-.757-.753C521.127,1239.07,520.665,1239.078,520.2,1239.078Zm-12.361,0v0c-.483,0-.967-.009-1.45,0a.616.616,0,0,0-.678.592,7.305,7.305,0,0,0,0,1.337.594.594,0,0,0,.643.587c.989.015,1.979.016,2.968,0a.626.626,0,0,0,.644-.665c.018-.367.017-.736.006-1.1a.678.678,0,0,0-.751-.747C508.763,1239.07,508.3,1239.078,507.842,1239.078Z" transform="translate(-496.317 -1213.256)" fill="#f8f8f8"/>
    </g>
  </g>
</svg>
