<svg xmlns="http://www.w3.org/2000/svg" width="41.911" height="41.911" viewBox="0 0 41.911 41.911">
  <g id="Group_2546" data-name="Group 2546" transform="translate(0.25 0.25)">
    <path id="Path_3896" data-name="Path 3896" d="M130.583,410.882h-4.251c-.005-.1-.012-.2-.012-.293V400.3h-.286q-1.423,0-2.849,0c-.143,0-.284-.012-.427-.019v-4.124a.851.851,0,0,0,.134.018h3.257a1.373,1.373,0,0,0,.171-.025v-.253c0-.876-.018-1.752.007-2.628a9.892,9.892,0,0,1,.147-1.618,4.649,4.649,0,0,1,4.119-3.889,16.38,16.38,0,0,1,3.114-.007c.359.018.715.06,1.072.09v3.69c-.1,0-.189,0-.277,0-.814.012-1.628.007-2.441.046a1.4,1.4,0,0,0-1.4,1.107,2.2,2.2,0,0,0-.079.556c-.011.922-.011,1.844-.012,2.764a1.414,1.414,0,0,0,.025.175h4.044l-.532,4.124h-3.538v10.353C130.572,410.732,130.579,410.806,130.583,410.882Z" transform="translate(-108.061 -378.574)" fill="#fff"/>
    <circle id="Ellipse_231" data-name="Ellipse 231" cx="20.706" cy="20.706" r="20.706" fill="none" stroke="#fff" stroke-width="0.5"/>
  </g>
</svg>
