<svg xmlns="http://www.w3.org/2000/svg" width="141.777" height="43.257" viewBox="0 0 141.777 43.257">
  <g id="Group_2562" data-name="Group 2562" transform="translate(22924.723 13947.24)">
    <g id="Group_68" data-name="Group 68" transform="translate(-22913.305 -13939.422)">
      <path id="Path_226" data-name="Path 226" d="M-752.767,439.286l-.111-.071,13.7-13.707,4.412,4.412c-.065.038-.172.1-.281.164q-7.873,4.409-15.75,8.81a7.48,7.48,0,0,1-1.019.391Z" transform="translate(755.275 -408.702)" fill="#fff"/>
      <path id="Path_227" data-name="Path 227" d="M-744.55,398.444l-14.057,14.062a2.83,2.83,0,0,1-.6-1.542c-.007-.069,0-.139,0-.209q0-12.316,0-24.633a2.952,2.952,0,0,1,.432-1.528c.049-.083.111-.159.159-.226Z" transform="translate(759.212 -383.138)" fill="#fff"/>
      <path id="Path_228" data-name="Path 228" d="M-734.747,390.5l-4.426,4.427-13.736-13.739a2.9,2.9,0,0,1,2.1.318l13.465,7.539Z" transform="translate(755.296 -381.117)" fill="#fff"/>
      <path id="Path_229" data-name="Path 229" d="M-712.907,413.589l2-1.994c.893-.893,1.79-1.782,2.675-2.684a.3.3,0,0,1,.43-.057c1.225.7,2.457,1.38,3.686,2.07a2.915,2.915,0,0,1,1.624,2.685,2.918,2.918,0,0,1-1.63,2.682q-1.843,1.034-3.688,2.067c-.138.078-.237.128-.384-.02q-2.311-2.331-4.637-4.647A1.08,1.08,0,0,1-712.907,413.589Z" transform="translate(730.438 -398.312)" fill="#fff"/>
    </g>
    <text id="Get_it_on" data-name="Get it on" transform="translate(-22878.953 -13932.5)" fill="#fff" font-size="8" font-family="MyriadPro-Regular, Myriad Pro" letter-spacing="0.04em"><tspan x="0" y="0">Get it on</tspan></text>
    <text id="Google_Play" data-name="Google Play" transform="translate(-22881.996 -13917.947)" fill="#fff" font-size="13" font-family="Poppins-Regular, Poppins"><tspan x="0" y="0">Google Play</tspan></text>
    <rect id="Rectangle_2" data-name="Rectangle 2" width="140.777" height="42.257" rx="9.308" transform="translate(-22924.223 -13946.74)" fill="none" stroke="#fff" stroke-width="1"/>
  </g>
</svg>
