<svg xmlns="http://www.w3.org/2000/svg" width="313.151" height="94.697" viewBox="0 0 313.151 94.697">
  <g id="Component_22_5" data-name="Component 22 – 5" transform="translate(0.5 0.5)">
    <g id="Group_68" data-name="Group 68" transform="translate(24.211 16.227)">
      <path id="Path_226" data-name="Path 226" d="M-752.632,456.058l-.245-.158,30.386-30.392,9.782,9.783c-.144.085-.381.229-.623.364q-17.457,9.775-34.922,19.535a16.577,16.577,0,0,1-2.259.867Z" transform="translate(758.195 -388.244)"/>
      <path id="Path_227" data-name="Path 227" d="M-726.7,415.578l-31.17,31.18a6.276,6.276,0,0,1-1.33-3.418c-.015-.153-.008-.309-.008-.463q0-27.309,0-54.62a6.543,6.543,0,0,1,.958-3.387c.109-.185.247-.353.352-.5Z" transform="translate(759.212 -381.639)"/>
      <path id="Path_228" data-name="Path 228" d="M-712.637,401.923l-9.815,9.817-30.458-30.463a6.434,6.434,0,0,1,4.647.705q14.929,8.356,29.855,16.715Q-715.527,400.309-712.637,401.923Z" transform="translate(758.2 -381.117)"/>
      <path id="Path_229" data-name="Path 229" d="M-712.907,419.435c1.494-1.493,2.961-2.957,4.426-4.421,1.98-1.979,3.969-3.952,5.932-5.95a.654.654,0,0,1,.954-.127c2.717,1.544,5.449,3.061,8.174,4.589a6.463,6.463,0,0,1,3.6,5.953,6.469,6.469,0,0,1-3.614,5.947q-4.087,2.293-8.178,4.583c-.306.172-.526.285-.852-.044q-5.124-5.169-10.281-10.3A2.341,2.341,0,0,1-712.907,419.435Z" transform="translate(751.778 -385.559)"/>
    </g>
    <text id="Get_it_on" data-name="Get it on" transform="translate(103.094 35.425)" fill="#161615" font-size="18" font-family="MyriadPro-Regular, Myriad Pro" letter-spacing="0.04em"><tspan x="0" y="0">Get it on</tspan></text>
    <text id="Google_Play" data-name="Google Play" transform="translate(93.633 66.803)" fill="#161615" font-size="32" font-family="Poppins-Regular, Poppins"><tspan x="0" y="0">Google Play</tspan></text>
    <rect id="Rectangle_2" data-name="Rectangle 2" width="312.151" height="93.697" rx="9.308" fill="none" stroke="#000" stroke-width="1"/>
  </g>
</svg>
