<svg xmlns="http://www.w3.org/2000/svg" width="161" height="164" viewBox="0 0 161 164">
  <g id="Group_2390" data-name="Group 2390" transform="translate(-0.427 -0.066)">
    <g id="Rectangle_683" data-name="Rectangle 683" transform="translate(0.427 0.066)" fill="#fff" stroke="#5b9c00" stroke-width="0.5">
      <rect width="161" height="164" rx="9" stroke="none"/>
      <rect x="0.25" y="0.25" width="160.5" height="163.5" rx="8.75" fill="none"/>
    </g>
    <text id="Guest_Room" data-name="Guest Room" transform="translate(19.294 111.182)" fill="#3434a8" font-size="14" font-family="Montserrat-SemiBold, Montserrat" font-weight="600"><tspan x="0" y="0">Guest Room</tspan></text>
    <g id="Ellipse_157" data-name="Ellipse 157" transform="translate(13.427 14.066)" fill="#3434a8" stroke="#5b9c00" stroke-width="0.4">
      <circle cx="33" cy="33" r="33" stroke="none"/>
      <circle cx="33" cy="33" r="32.8" fill="none"/>
    </g>
    <text id="There_is_a_guest_room_in_this_facility" data-name="There is a guest room in
this facility" transform="translate(22.426 130.066)" fill="#343434" font-size="10" font-family="Montserrat-SemiBold, Montserrat" font-weight="600"><tspan x="0" y="0">There is a guest room in</tspan><tspan x="0" y="14">this facility</tspan></text>
    <path id="Path_3756" data-name="Path 3756" d="M3256.291,700.545c-.184.177-.339.421-.558.518a.783.783,0,0,1-1.092-.669c-.055-.652-.034-1.31-.044-1.965,0-.2,0-.392,0-.619h-36.939c0,.678,0,1.344,0,2.009a3.94,3.94,0,0,1-.043.626.793.793,0,0,1-.8.671.829.829,0,0,1-.835-.687,2.363,2.363,0,0,1-.016-.393q0-5.671,0-11.341a4.155,4.155,0,0,1,3.067-4.206c.28-.089.28-.252.28-.47q0-3.485,0-6.97a4.387,4.387,0,0,1,.387-2.029,4.282,4.282,0,0,1,4.129-2.481q12.306.012,24.612.007a5.39,5.39,0,0,1,1.1.087,4.212,4.212,0,0,1,3.411,4.343c.01,2.35,0,4.7,0,7.049,0,.223.008.38.287.465a4.123,4.123,0,0,1,2.992,3.271,1.247,1.247,0,0,0,.07.182Zm-38.6-7.875h36.877c0-1.478.037-2.921-.023-4.36a2.68,2.68,0,0,0-.483-1.291,2.524,2.524,0,0,0-2.3-1.01q-15.632.01-31.263.005c-.209,0-.419.015-.628.031a2.419,2.419,0,0,0-2.173,2.177c-.047,1.429-.027,2.86-.034,4.29A.841.841,0,0,0,3217.694,692.671Zm5.552-8.365a3.923,3.923,0,0,1-.072-1.079c.3-1.34.6-2.684,1-3.993a2.163,2.163,0,0,1,2.079-1.6c1.888-.06,3.779-.056,5.667-.036a2.462,2.462,0,0,1,2.514,2.368c.051,1.437.012,2.877.012,4.323h3.475a3.716,3.716,0,0,1-.109-.607c-.009-1.259-.053-2.521.011-3.777a2.439,2.439,0,0,1,2.37-2.294c1.889-.008,3.78-.048,5.667.01a2.362,2.362,0,0,1,2.327,1.929c.248.895.457,1.8.69,2.7a3.131,3.131,0,0,1,.063,2.048h2.285c.008-.071.019-.121.019-.171,0-2.428.019-4.857-.005-7.285a2.525,2.525,0,0,0-2.665-2.6q-12.444-.01-24.887.008a3.052,3.052,0,0,0-1.251.272,2.515,2.515,0,0,0-1.437,2.5q0,3.426,0,6.852v.432Zm31.339,10.128h-36.9v1.6h36.9Zm-25.817-10.116c1,0,1.995.008,2.992,0a.877.877,0,0,0,.987-1q.006-1.5,0-2.992c0-.733-.315-1.044-1.06-1.045q-2.48,0-4.961,0a.933.933,0,0,0-1.067.825c-.251,1-.5,2.006-.743,3.009a.866.866,0,0,0,.938,1.2C3226.825,684.321,3227.8,684.318,3228.767,684.317Zm14.693,0c1,0,1.995.007,2.992,0a.855.855,0,0,0,.917-1.105q-.38-1.583-.792-3.158a.889.889,0,0,0-.986-.774q-2.559-.01-5.119,0a.867.867,0,0,0-.967.979c0,1,0,2,0,2.993,0,.76.309,1.065,1.079,1.067C3241.543,684.322,3242.5,684.32,3243.46,684.32Z" transform="translate(-3189.916 -639.74)" fill="#f8f8f8"/>
  </g>
</svg>
