<svg xmlns="http://www.w3.org/2000/svg" width="161" height="164" viewBox="0 0 161 164">
  <g id="Group_2392" data-name="Group 2392" transform="translate(-0.427)">
    <g id="Rectangle_684" data-name="Rectangle 684" transform="translate(0.427)" fill="#fff" stroke="#5b9c00" stroke-width="0.5">
      <rect width="161" height="164" rx="9" stroke="none"/>
      <rect x="0.25" y="0.25" width="160.5" height="163.5" rx="8.75" fill="none"/>
    </g>
    <text id="Gym" transform="translate(19.294 111.182)" fill="#03254c" font-size="14" font-family="Montserrat-SemiBold, Montserrat" font-weight="600"><tspan x="0" y="0">Gym</tspan></text>
    <g id="Ellipse_158" data-name="Ellipse 158" transform="translate(13.427 14)" fill="#03254c" stroke="#5b9c00" stroke-width="0.4">
      <circle cx="33" cy="33" r="33" stroke="none"/>
      <circle cx="33" cy="33" r="32.8" fill="none"/>
    </g>
    <text id="Gym_is_available_in_this_facility" data-name="Gym is available in
this facility" transform="translate(22.426 130)" fill="#343434" font-size="10" font-family="Montserrat-SemiBold, Montserrat" font-weight="600"><tspan x="0" y="0">Gym is available in</tspan><tspan x="0" y="14">this facility</tspan></text>
    <g id="Group_2391" data-name="Group 2391" transform="translate(30.87 26.464)">
      <path id="Path_3757" data-name="Path 3757" d="M-21.933,1167.255c-.4.44-.786.886-1.191,1.318-.194.207-.416.389-.636.592a1.543,1.543,0,0,1,.365,1.5,1.455,1.455,0,0,1-1.481,1.049,1.209,1.209,0,0,1-.365-.035c-.676-.255-1.021.115-1.378.625a19.208,19.208,0,0,0-3.021,6.743c-.006.026-.017.05-.1.09-.1-.52-.236-1.037-.28-1.561-.083-.977-.121-1.958-.151-2.938a1.271,1.271,0,0,1,.163-.617c.5-.917,1.026-1.823,1.554-2.753l-.449-.126a3.233,3.233,0,0,0-.064-2.107c-.07-.23.1-.534.172-.833.836.109,1.615.223,2.4.3a.715.715,0,0,0,.488-.16c.677-.594,1.329-1.217,2-1.82.837-.754,1.385-.682,1.974.244Z" transform="translate(53.728 -1156.842)" fill="#f8f8f8"/>
      <path id="Path_3758" data-name="Path 3758" d="M-92.4,1109.853a3.833,3.833,0,0,1,1.836.985,3.138,3.138,0,0,1,.727,3.368,3.111,3.111,0,0,1-2.741,2.136,3.245,3.245,0,0,1-3.485-2.457,3.27,3.27,0,0,1,1.921-3.783c.22-.1.451-.167.677-.249Z" transform="translate(108.948 -1109.853)" fill="#f8f8f8"/>
      <path id="Path_3759" data-name="Path 3759" d="M-167.876,1214.279l3.511.677c.107,1.262.24,2.522.3,3.785a3.434,3.434,0,0,1-.263,1.1c-.251.818-.518,1.63-.8,2.5.57.076,1.1.161,1.639.212a.649.649,0,0,1,.577.41,15.521,15.521,0,0,0,.914,1.368,1.158,1.158,0,0,0-1.129.88,1.132,1.132,0,0,0,1.036,1.447c1.363.082,2.727.152,4.09.218a1.2,1.2,0,0,0,1.314-1.076,1.23,1.23,0,0,0-1.1-1.263c-.183-.027-.371-.025-.554-.037.323-.345.626-.685.951-1a.438.438,0,0,1,.322-.075c1.1.14,2.189.291,3.283.438a2.129,2.129,0,0,0,.219,0l.308-2.7.076-.011c.314.8.644,1.6.936,2.417.132.368.3.608.732.592a5.254,5.254,0,0,1,.741.081c-.382-.981-.744-1.916-1.11-2.848a33.71,33.71,0,0,1-1.883-5.651,22.508,22.508,0,0,1-.356-5.705,1.656,1.656,0,0,1,.057-.255l2.033-.23c0,.157.011.289,0,.419a16.7,16.7,0,0,0,.728,7.033c.766,2.255,1.677,4.461,2.525,6.688.044.115.092.228.132.343a2.66,2.66,0,0,0,.827,1.213,3.806,3.806,0,0,1-1.181,6.53c-.074.027-.147.058-.289.115l1.1,1.126c.268.273.545.538.8.823a.814.814,0,0,1,.006,1.2.809.809,0,0,1-1.174-.065q-1.267-1.254-2.5-2.538a.664.664,0,0,0-.666-.238q-5.129.8-10.265,1.558c-1.982.292-3.965.584-5.955.809a5.176,5.176,0,0,1-2.815-.562.415.415,0,0,0-.587.109,11.451,11.451,0,0,1-.837.843.829.829,0,0,1-1.237.047.823.823,0,0,1,.072-1.206c.281-.3.595-.56.841-.79a18.939,18.939,0,0,1-1.3-1.911,6.381,6.381,0,0,1,4.859-9.29.548.548,0,0,0,.54-.44c.259-.9.563-1.793.834-2.692a1.5,1.5,0,0,0,.05-.559c-.115-1.209-.244-2.417-.367-3.625A1.5,1.5,0,0,1-167.876,1214.279Zm-.178,10.071a3.822,3.822,0,0,0-3.869,3.773,3.827,3.827,0,0,0,3.739,3.862,3.846,3.846,0,0,0,3.894-3.8A3.812,3.812,0,0,0-168.054,1224.35Z" transform="translate(174.534 -1193.28)" fill="#f8f8f8"/>
      <path id="Path_3760" data-name="Path 3760" d="M-133.92,1154.728c.145.318.288.637.436.953.475,1.011.943,2.026,1.435,3.029a.777.777,0,0,1,.011.732c-.188.408-.35.827-.549,1.3l1.679.325c.4.078.806.14,1.2.241a1.76,1.76,0,0,1,1.362,1.923c-.153,1.547-.328,3.092-.5,4.638-.154,1.41-.321,2.819-.468,4.23a1.809,1.809,0,0,1-1.837,1.716,1.742,1.742,0,0,1-1.7-1.951c.155-1.752.361-3.5.545-5.25.074-.7.149-1.4.227-2.135-.99-.187-1.937-.367-2.884-.545-1.044-.2-2.09-.375-3.13-.589a2.1,2.1,0,0,1-1.717-2.964c.85-2.385,1.776-4.743,2.672-7.111.227-.6.435-1.206.7-1.786a2.036,2.036,0,0,1,2.848-1.081q4.04,1.773,8.077,3.553c.108.047.21.107.413.212-1.051.12-2,.178-2.935.351a1.758,1.758,0,0,1-1.488-.431c-.662-.5-1.353-.966-2.078-1.412a2.669,2.669,0,0,0,.161.24c.806.963,1.62,1.92,2.417,2.891a.525.525,0,0,0,.553.206q2.253-.278,4.511-.51a1.5,1.5,0,0,1,1.853,1.532,1.464,1.464,0,0,1-1.271,1.391c-1.475.181-2.953.337-4.429.5-.366.041-.733.072-1.1.132a1.777,1.777,0,0,1-1.817-.656c-.931-1.143-1.892-2.263-2.841-3.392-.1-.114-.195-.224-.292-.336Z" transform="translate(145.616 -1143.603)" fill="#f8f8f8"/>
      <path id="Path_3761" data-name="Path 3761" d="M-37.915,1163.621l-1.946-.643c.145-.393.3-.856.486-1.305a1.047,1.047,0,0,1,1.281-.6,1.045,1.045,0,0,1,.638,1.3C-37.593,1162.809-37.772,1163.236-37.915,1163.621Z" transform="translate(61.84 -1152.671)" fill="#f8f8f8"/>
    </g>
  </g>
</svg>
