<svg id="Group_539" data-name="Group 539" xmlns="http://www.w3.org/2000/svg" width="22.219" height="22.225" viewBox="0 0 22.219 22.225">
  <path id="Path_1571" data-name="Path 1571" d="M-1032.778,521.568a.481.481,0,0,1-.3-.435.425.425,0,0,1,.464-.432c.615,0,1.229,0,1.861,0V510.02c-.376.16-.47.141-.762-.151q-.683-.683-1.365-1.365c-.291-.293-.274-.54.054-.8l10.509-8.206a.462.462,0,0,1,.7.007l4.323,3.374c.078.06.157.118.269.2v-1.527c0-.477.122-.6.6-.6h2.277c.346,0,.5.156.5.5,0,1.338,0,2.676,0,4.013a.457.457,0,0,0,.2.415c.77.588,1.531,1.186,2.29,1.787a2.837,2.837,0,0,1,.293.311v.26c-.168.188-.33.381-.505.562-.348.357-.7.707-1.057,1.06-.291.291-.389.31-.781.143a12.674,12.674,0,0,1-1-.822c0-.125.105.082,0,0q-3.815-2.97-7.622-5.95a.194.194,0,0,0-.292,0q-3.806,2.98-7.615,5.956a.383.383,0,0,0-.129.265q-.01,5.532-.005,11.063v.161h1.215v-.24q0-1.9,0-3.8a.423.423,0,0,1,.267-.429.37.37,0,0,1,.457.084.681.681,0,0,1,.139.389c.01,1.251.006,2.5.006,3.753v.243h13.709v-.228q0-1.887,0-3.775a.428.428,0,0,1,.353-.452.426.426,0,0,1,.485.275.813.813,0,0,1,.028.256q0,1.833,0,3.666v.269h.3c.492,0,.984.011,1.475,0a.535.535,0,0,1,.565.308v.564Zm19.84-12.5.945-.933-9.982-7.795-9.964,7.781.936.936c.024-.017.071-.05.117-.085l8.541-6.67c.289-.226.443-.233.714-.021l6.951,5.429Zm-1.591-4.03v-3.2h-1.632c0,.617,0,1.216,0,1.815a.26.26,0,0,0,.087.178C-1015.568,504.236-1015.061,504.628-1014.53,505.042Z" transform="translate(1033.09 -499.344)"/>
</svg>
