<svg xmlns="http://www.w3.org/2000/svg" width="41.911" height="41.911" viewBox="0 0 41.911 41.911">
  <g id="Group_2551" data-name="Group 2551" transform="translate(0.25 0.25)">
    <circle id="Ellipse_234" data-name="Ellipse 234" cx="20.706" cy="20.706" r="20.706" transform="translate(0)" fill="none" stroke="#fff" stroke-width="0.5"/>
    <g id="Group_2550" data-name="Group 2550" transform="translate(12.552 12.555)">
      <path id="Path_3901" data-name="Path 3901" d="M217.475,389.629h8.085c.051.009.1.021.155.026a3.959,3.959,0,0,1,1.272.332,4.315,4.315,0,0,1,2.672,4.092c.03,2.467.007,4.935.005,7.4a4.2,4.2,0,0,1-.562,2.176,4.331,4.331,0,0,1-3.933,2.268c-2.434.012-4.869.007-7.3,0a4.447,4.447,0,0,1-4.362-3.356c-.067-.242-.09-.5-.134-.747v-8.085c.026-.171.042-.346.081-.514a4.359,4.359,0,0,1,3.276-3.458C216.97,389.7,217.226,389.673,217.475,389.629Zm-3.151,8.133c0,1.219-.005,2.439,0,3.659a3.739,3.739,0,0,0,.079.82,3.443,3.443,0,0,0,3.433,2.73q3.677,0,7.352,0a3.471,3.471,0,0,0,3.518-3.513q0-3.677,0-7.353a3.669,3.669,0,0,0-.074-.773,3.446,3.446,0,0,0-3.407-2.743c-2.473-.007-4.943,0-7.416,0a3.257,3.257,0,0,0-1.434.3,3.4,3.4,0,0,0-2.049,3.214C214.312,395.321,214.324,396.542,214.324,397.762Z" transform="translate(-213.369 -389.629)" fill="#fff"/>
      <path id="Path_3902" data-name="Path 3902" d="M219.928,391.72a4.456,4.456,0,1,1-4.468,4.444A4.472,4.472,0,0,1,219.928,391.72Zm3.488,4.463a3.5,3.5,0,1,0-3.511,3.493A3.513,3.513,0,0,0,223.417,396.183Z" transform="translate(-211.767 -388.027)" fill="#fff"/>
      <path id="Path_3903" data-name="Path 3903" d="M221.14,393.456a1.316,1.316,0,1,1,1.314-1.318A1.324,1.324,0,0,1,221.14,393.456Zm.355-1.321a.359.359,0,0,0-.717,0,.372.372,0,0,0,.369.362A.368.368,0,0,0,221.495,392.134Z" transform="translate(-208.425 -388.713)" fill="#fff"/>
    </g>
  </g>
</svg>
