<svg xmlns="http://www.w3.org/2000/svg" width="117.093" height="114.582" viewBox="0 0 117.093 114.582">
  <g id="Group_2531" data-name="Group 2531" transform="translate(0)">
    <path id="Path_3880" data-name="Path 3880" d="M1998.84,104.547c6.829,1.464,12.4,5.61,18.411,8.771,11.084,5.828,22.037,11.905,33.037,17.89a25.018,25.018,0,0,1,2.32,1.471,6.659,6.659,0,0,1,2.2,8.885,6.9,6.9,0,0,1-8.8,3.143c-1.589-.672-3.085-1.562-4.75-2.419V164.5c2.426.672,4.919,1.36,7.411,2.052.463.129.928.257,1.383.412,2.456.837,2.676,1.146,2.676,3.722,0,6.469.019,12.938-.006,19.408a30.578,30.578,0,0,1-22.149,28.9,3.943,3.943,0,0,1-2.077-.01,30,30,0,0,1-19.337-16.8,2.059,2.059,0,0,0-2.2-1.466q-23.17.07-46.34.03c-4.752,0-7.549-2.792-7.549-7.536q0-24.549,0-49.1v-2.016a27.145,27.145,0,0,0-2.6,1.426c-4.4,3.084-9.98,1.982-11.889-3.912v-2.9c.931-2.795,3.044-4.35,5.549-5.686,10.246-5.463,20.364-11.17,30.671-16.514,6.758-3.5,12.965-8.19,20.565-9.964Zm37.664,58.6c0-7.75.018-15.28-.047-22.808,0-.439-.6-1.031-1.064-1.285-11.962-6.549-23.963-13.025-35.9-19.626a4.158,4.158,0,0,0-4.515.011q-18.149,9.885-36.352,19.667a1.637,1.637,0,0,0-.946,1.707q.029,26.073.016,52.147c0,2.326.818,3.15,3.122,3.154q6.807.011,13.614,0h4.125v-1.867q0-18.686,0-37.372a6.843,6.843,0,0,1,7.092-7.119q11.442-.014,22.883,0a6.85,6.85,0,0,1,7.1,7.111c.009,2.7,0,5.394,0,8.207,4.194-1.186,8.248-2.388,12.338-3.451a7,7,0,0,1,3.08,0C2032.837,161.993,2034.567,162.588,2036.5,163.144Zm11.589,8.142c-6.078-1.723-12.079-3.433-18.091-5.111a2.417,2.417,0,0,0-1.243.084c-5.589,1.609-11.167,3.259-16.763,4.844-.744.211-1.016.494-1,1.266.11,6.461-.1,12.942.336,19.38.765,11.169,7.046,18.393,17.206,22.491a3.125,3.125,0,0,0,2.049.01,25.946,25.946,0,0,0,13.785-11.327c2.985-4.963,3.853-10.392,3.746-16.09C2048.018,181.675,2048.094,176.516,2048.094,171.286Zm-41.174,24.766c-.187-1.962-.5-3.776-.513-5.593-.062-6.856-.009-13.714-.051-20.57a2.372,2.372,0,0,1,1.732-2.514c.942-.333,1.905-.611,2.922-.934,0-2.979,0-5.92,0-8.862,0-2.4-.806-3.192-3.228-3.194q-10.574-.006-21.147,0c-2.721,0-3.439.713-3.439,3.417q0,18.4,0,36.8c0,.468.041.936.065,1.454Zm-9.951-87.156a42.692,42.692,0,0,0-5.932,2.133c-11.441,6.079-22.83,12.254-34.215,18.436-4.19,2.274-8.321,4.657-12.48,6.988a1.887,1.887,0,0,0-.787,2.82,2.208,2.208,0,0,0,2.959.988c.531-.223,1.035-.511,1.542-.786,14.784-8.007,29.6-15.963,44.327-24.068a8.924,8.924,0,0,1,9.491.009c15.148,8.335,30.385,16.508,45.594,24.731a2.761,2.761,0,0,0,1.073.343,2.114,2.114,0,0,0,2.353-1.711c.375-1.418-.473-2.251-1.626-2.873-15.552-8.408-31.089-16.847-46.678-25.188A33.489,33.489,0,0,0,1996.968,108.9Z" transform="translate(-1938.578 -104.547)"/>
    <path id="Path_3881" data-name="Path 3881" d="M2030.739,196.374l8.063-8.034c.615-.613,1.213-1.246,1.848-1.838a2.357,2.357,0,1,1,3.287,3.355c-2.811,2.854-5.651,5.68-8.49,8.506-.991.987-1.974,1.989-3.03,2.9a2.087,2.087,0,0,1-3.216-.039q-2.985-2.846-5.838-5.831a2.327,2.327,0,0,1,3.322-3.258C2028.064,193.473,2029.345,194.908,2030.739,196.374Z" transform="translate(-1942.209 -108.048)"/>
  </g>
</svg>
