<svg xmlns="http://www.w3.org/2000/svg" width="161" height="164" viewBox="0 0 161 164">
  <g id="Group_2387" data-name="Group 2387" transform="translate(0.146 0.467)">
    <g id="Rectangle_681" data-name="Rectangle 681" transform="translate(-0.146 -0.467)" fill="#fff" stroke="#5b9c00" stroke-width="0.5">
      <rect width="161" height="164" rx="9" stroke="none"/>
      <rect x="0.25" y="0.25" width="160.5" height="163.5" rx="8.75" fill="none"/>
    </g>
    <text id="Library" transform="translate(19.294 111.182)" fill="#3d354b" font-size="14" font-family="Montserrat-SemiBold, Montserrat" font-weight="600"><tspan x="0" y="0">Library</tspan></text>
    <g id="Ellipse_155" data-name="Ellipse 155" transform="translate(13.854 14.533)" fill="#3d354b" stroke="#5b9c00" stroke-width="0.4">
      <ellipse cx="32.5" cy="33" rx="32.5" ry="33" stroke="none"/>
      <ellipse cx="32.5" cy="33" rx="32.3" ry="32.8" fill="none"/>
    </g>
    <text id="This_facility_has_well_stocked_library" data-name="This facility has well
stocked library" transform="translate(21.855 129.533)" font-size="10" font-family="Montserrat-SemiBold, Montserrat" font-weight="600"><tspan x="0" y="0">This facility has well</tspan><tspan x="0" y="14">stocked library</tspan></text>
    <g id="Group_2386" data-name="Group 2386" transform="translate(30.87 30.87)">
      <path id="Path_3719" data-name="Path 3719" d="M4174.787,669.659q1.332.347,2.663.694c.465.12.935.227,1.4.351.448.12.583.344.477.786-.148.62-.307,1.237-.469,1.887a2.538,2.538,0,0,0-1.42-.46,2.164,2.164,0,0,0-1.956,3.051c.252.536.587,1.033.918,1.607-.455-.109-.863-.2-1.269-.3q-1-.248-2.008-.5c-.506-.127-.649-.363-.519-.878.477-1.906.95-3.813,1.445-5.714a1.865,1.865,0,0,1,.361-.519Z" transform="translate(-4161.155 -669.659)" fill="#f8f8f8"/>
      <path id="Path_3720" data-name="Path 3720" d="M4213.723,720.751h-.523v.4q0,4.882,0,9.764a2.607,2.607,0,0,1-.075.684,1.3,1.3,0,0,1-2.549-.262c-.014-.156-.019-.314-.019-.471q0-9.135,0-18.269c0-.284-.065-.415-.357-.5-1.14-.351-2.267-.742-3.4-1.109a1.326,1.326,0,0,1-.751-.583c-.831-1.348-1.669-2.691-2.5-4.041a1.1,1.1,0,1,1,1.86-1.175c.558.888,1.156,1.755,1.643,2.681a2.662,2.662,0,0,0,1.908,1.524,15.657,15.657,0,0,1,2,.647,3.371,3.371,0,0,0,1.23.187q2.015-.046,4.032-.054a2.673,2.673,0,0,1,2.2,1.017,2.7,2.7,0,0,1,.586,1.722q.024,3.985.027,7.969a1.107,1.107,0,0,1-.813,1.2,1.088,1.088,0,0,1-1.406-.987c-.032-.818-.029-1.637-.034-2.456q-.018-2.788-.028-5.575a.633.633,0,0,0-.011-.249c-.034-.073-.121-.167-.186-.168s-.154.1-.177.17a1,1,0,0,0-.012.312q0,8.93.012,17.859a1.589,1.589,0,0,1-.233.989,1.328,1.328,0,0,1-2.407-.818c-.013-.882-.006-1.764-.006-2.646q0-3.732,0-7.465C4213.736,720.95,4213.729,720.858,4213.723,720.751Z" transform="translate(-4188.123 -700.268)" fill="#f8f8f8"/>
      <path id="Path_3721" data-name="Path 3721" d="M4091.363,813.5q-5.038,0-10.079,0c-.583,0-.632-.053-.633-.625,0-.8,0-.8.81-.8h19.968a2.986,2.986,0,0,1,.346.01c.222.026.36.158.325.381-.056.344.217.78-.252,1.01a.831.831,0,0,1-.342.02h-10.142Z" transform="translate(-4080.647 -794.408)" fill="#f8f8f8"/>
      <path id="Path_3722" data-name="Path 3722" d="M4091.376,886.43h10.142c.549,0,.586.04.587.6,0,.808,0,.809-.791.809l-20.127,0c-.474,0-.538-.066-.541-.55-.006-.851-.006-.851.839-.851Z" transform="translate(-4080.643 -859.542)" fill="#f8f8f8"/>
      <path id="Path_3723" data-name="Path 3723" d="M4096.886,737H4081.27c-.616,0-.645-.029-.646-.634,0-.764,0-.764.768-.764,3.674,0,7.347.009,11.021-.008a10.485,10.485,0,0,1,2.18.415c.553.114,1.1.273,1.644.41C4096.677,736.533,4096.678,736.531,4096.886,737Z" transform="translate(-4080.624 -727.419)" fill="#f8f8f8"/>
      <path id="Path_3724" data-name="Path 3724" d="M4266.707,709.774a2.268,2.268,0,1,1,4.536.021,2.3,2.3,0,0,1-2.269,2.27A2.28,2.28,0,0,1,4266.707,709.774Z" transform="translate(-4243.626 -702.817)" fill="#f8f8f8"/>
      <path id="Path_3725" data-name="Path 3725" d="M4113.167,759.64c-.715,0-1.4.005-2.074-.009-.059,0-.165-.125-.165-.193q-.018-1.873-.008-3.747a.369.369,0,0,1,.419-.4c.483,0,.965,0,1.448.007.231,0,.381.1.381.359Z" transform="translate(-4107.16 -744.668)" fill="#f8f8f8"/>
      <path id="Path_3726" data-name="Path 3726" d="M4087.331,759.67c-.711,0-1.38.006-2.05-.009a.282.282,0,0,1-.186-.2c-.01-1.248-.008-2.5,0-3.743a.352.352,0,0,1,.391-.391c.493,0,.986,0,1.478,0,.214,0,.368.1.369.336C4087.332,756.983,4087.331,758.3,4087.331,759.67Z" transform="translate(-4084.534 -744.698)" fill="#f8f8f8"/>
      <path id="Path_3727" data-name="Path 3727" d="M4138.488,759.637h-2.263v-1.053q0-1.37,0-2.74c0-.435.1-.53.541-.533s.882,0,1.323,0a.348.348,0,0,1,.4.383Z" transform="translate(-4129.329 -744.686)" fill="#f8f8f8"/>
      <path id="Path_3728" data-name="Path 3728" d="M4138.488,683.123h-2.235c-.007-.1-.02-.178-.02-.26q0-1.761,0-3.522c0-.452.1-.548.554-.549s.881,0,1.321,0a.335.335,0,0,1,.381.362C4138.49,680.468,4138.488,681.778,4138.488,683.123Z" transform="translate(-4129.333 -677.66)" fill="#f8f8f8"/>
      <path id="Path_3729" data-name="Path 3729" d="M4113.158,683.141h-2.234c-.006-.114-.016-.215-.016-.317q0-1.732,0-3.465c0-.459.093-.549.552-.549.431,0,.86,0,1.292,0,.232,0,.4.087.4.337C4113.161,680.468,4113.158,681.789,4113.158,683.141Z" transform="translate(-4107.151 -677.674)" fill="#f8f8f8"/>
      <path id="Path_3730" data-name="Path 3730" d="M4087.325,683.126h-2.218c-.009-.1-.023-.2-.023-.3q0-1.731,0-3.462c0-.487.083-.567.563-.568.43,0,.86,0,1.29,0,.221,0,.384.089.385.319C4087.329,680.438,4087.325,681.768,4087.325,683.126Z" transform="translate(-4084.529 -677.656)" fill="#f8f8f8"/>
      <path id="Path_3731" data-name="Path 3731" d="M4156.62,757.57c-.187-.728-.365-1.424-.543-2.12-.142-.557-.284-1.113-.421-1.671-.078-.315-.01-.44.311-.528q.664-.183,1.335-.342c.235-.056.439-.026.513.262q.467,1.837.938,3.673a.83.83,0,0,1,0,.177Z" transform="translate(-4146.323 -742.563)" fill="#f8f8f8"/>
      <path id="Path_3732" data-name="Path 3732" d="M4183.554,757l-2.17.554c-.141-.53-.283-1.049-.415-1.569-.186-.729-.367-1.459-.548-2.188-.084-.34-.02-.461.317-.554.442-.122.888-.237,1.334-.345.227-.055.434-.013.5.245C4182.9,754.419,4183.221,755.693,4183.554,757Z" transform="translate(-4168.013 -742.557)" fill="#f8f8f8"/>
      <path id="Path_3733" data-name="Path 3733" d="M4207.19,757.66l-2.176.561c-.152-.586-.3-1.158-.45-1.731q-.253-.988-.5-1.976c-.1-.4-.027-.535.371-.637.354-.09.709-.173,1.011-.246.333.363.643.7.949,1.038a.327.327,0,0,1,.064.139C4206.7,755.747,4206.941,756.687,4207.19,757.66Z" transform="translate(-4188.714 -743.214)" fill="#f8f8f8"/>
      <path id="Path_3734" data-name="Path 3734" d="M4156.612,680.964q-.195-.772-.388-1.544c-.187-.739-.369-1.48-.566-2.216a.365.365,0,0,1,.3-.513c.464-.122.93-.24,1.4-.359a.345.345,0,0,1,.462.255,1.425,1.425,0,0,1,.056.855c-.286,1.059-.548,2.124-.8,3.19A.37.37,0,0,1,4156.612,680.964Z" transform="translate(-4146.33 -675.489)" fill="#f8f8f8"/>
      <path id="Path_3735" data-name="Path 3735" d="M4109.784,850.25h1.671c.007.115.018.215.018.315q0,1.511,0,3.022c0,.382-.105.493-.48.5-.283,0-.566,0-.849-.006-.2-.005-.359-.092-.361-.312C4109.78,852.6,4109.784,851.438,4109.784,850.25Z" transform="translate(-4106.166 -827.849)" fill="#f8f8f8"/>
      <path id="Path_3736" data-name="Path 3736" d="M4157.545,850.3h1.693v.927c0,.818,0,1.637,0,2.455,0,.327-.106.436-.43.444-.293.008-.588,0-.881,0a.338.338,0,0,1-.381-.364C4157.543,852.61,4157.545,851.467,4157.545,850.3Z" transform="translate(-4148.004 -827.89)" fill="#f8f8f8"/>
      <path id="Path_3737" data-name="Path 3737" d="M4087.39,850.283h1.63a.455.455,0,0,1,.037.122q0,1.637,0,3.274c0,.277-.122.435-.417.43a8.441,8.441,0,0,1-.911-.016c-.124-.015-.327-.16-.329-.249C4087.383,852.663,4087.39,851.481,4087.39,850.283Z" transform="translate(-4086.55 -827.878)" fill="#f8f8f8"/>
      <path id="Path_3738" data-name="Path 3738" d="M4111.484,830.614H4109.8a9.455,9.455,0,0,1,.016-1.087c.011-.1.215-.232.342-.247a6.177,6.177,0,0,1,.941-.01.358.358,0,0,1,.382.372C4111.491,829.955,4111.484,830.268,4111.484,830.614Z" transform="translate(-4106.174 -809.461)" fill="#f8f8f8"/>
      <path id="Path_3739" data-name="Path 3739" d="M4157.546,830.632c0-.347-.011-.68,0-1.011a.333.333,0,0,1,.364-.318c.314-.012.628-.015.941,0a.358.358,0,0,1,.386.4c0,.3,0,.6,0,.932Z" transform="translate(-4148.001 -809.492)" fill="#f8f8f8"/>
      <path id="Path_3740" data-name="Path 3740" d="M4087.307,830.636c0-.343,0-.656,0-.97a.316.316,0,0,1,.321-.353,6.071,6.071,0,0,1,1.034.013.468.468,0,0,1,.3.32,7.319,7.319,0,0,1,.015.989Z" transform="translate(-4086.478 -809.496)" fill="#f8f8f8"/>
      <path id="Path_3741" data-name="Path 3741" d="M4134.411,830.63h-1.681a7.586,7.586,0,0,1,.015-1.009.47.47,0,0,1,.32-.308,5.893,5.893,0,0,1,1.031-.007.314.314,0,0,1,.316.354C4134.409,829.973,4134.411,830.286,4134.411,830.63Z" transform="translate(-4126.258 -809.486)" fill="#f8f8f8"/>
      <path id="Path_3742" data-name="Path 3742" d="M4136.254,800.382h2.254c0,.177.012.351,0,.523a.336.336,0,0,1-.371.313q-.754.012-1.511-.006a.357.357,0,0,1-.369-.387C4136.25,800.689,4136.254,800.553,4136.254,800.382Z" transform="translate(-4129.352 -784.167)" fill="#f8f8f8"/>
      <path id="Path_3743" data-name="Path 3743" d="M4110.933,800.368h2.2c0,.156,0,.308,0,.46a.323.323,0,0,1-.34.368c-.513.015-1.027.024-1.54,0C4110.906,801.18,4110.8,800.894,4110.933,800.368Z" transform="translate(-4107.126 -784.155)" fill="#f8f8f8"/>
      <path id="Path_3744" data-name="Path 3744" d="M4087.234,800.374a1.062,1.062,0,0,1,.021.119c.029.662-.025.719-.684.719h-.91c-.616,0-.758-.195-.6-.838Z" transform="translate(-4084.46 -784.16)" fill="#f8f8f8"/>
      <path id="Path_3745" data-name="Path 3745" d="M4214.53,796.428l2.159-.547c.038.135.07.242.1.351.088.366.03.472-.325.566-.412.109-.827.213-1.241.316s-.518.032-.624-.371C4214.572,796.652,4214.558,796.56,4214.53,796.428Z" transform="translate(-4197.921 -780.224)" fill="#f8f8f8"/>
      <path id="Path_3746" data-name="Path 3746" d="M4166.116,796.444l2.16-.547c.04.125.073.212.1.3.1.408.039.519-.374.627-.395.1-.79.2-1.186.3-.413.1-.52.037-.624-.374C4166.165,796.662,4166.146,796.571,4166.116,796.444Z" transform="translate(-4155.512 -780.238)" fill="#f8f8f8"/>
      <path id="Path_3747" data-name="Path 3747" d="M4190.865,796.417l2.166-.549c.047.162.09.279.115.4a.382.382,0,0,1-.312.517c-.428.1-.852.214-1.278.32s-.5.048-.614-.38C4190.918,796.635,4190.9,796.545,4190.865,796.417Z" transform="translate(-4177.191 -780.213)" fill="#f8f8f8"/>
      <path id="Path_3748" data-name="Path 3748" d="M4136.231,723.915h2.252a4.361,4.361,0,0,1,0,.525.334.334,0,0,1-.375.3q-.738,0-1.475,0a.362.362,0,0,1-.4-.388C4136.225,724.222,4136.231,724.088,4136.231,723.915Z" transform="translate(-4129.332 -717.185)" fill="#f8f8f8"/>
      <path id="Path_3749" data-name="Path 3749" d="M4087.337,723.945c0,.14,0,.253,0,.367-.006.357-.105.454-.477.457q-.613,0-1.227,0c-.437,0-.541-.1-.54-.533,0-.092.011-.184.018-.294Z" transform="translate(-4084.54 -717.211)" fill="#f8f8f8"/>
      <path id="Path_3750" data-name="Path 3750" d="M4113.185,724.031c0,.15,0,.275,0,.4.01.3-.146.416-.426.414-.408,0-.817,0-1.227,0-.513,0-.6-.094-.6-.6,0-.061.007-.122.014-.208Z" transform="translate(-4107.177 -717.287)" fill="#f8f8f8"/>
    </g>
  </g>
</svg>
