<svg xmlns="http://www.w3.org/2000/svg" width="41.911" height="41.911" viewBox="0 0 41.911 41.911">
  <g id="Group_2549" data-name="Group 2549" transform="translate(0.25 0.25)">
    <circle id="Ellipse_233" data-name="Ellipse 233" cx="20.706" cy="20.706" r="20.706" fill="none" stroke="#fff" stroke-width="0.5"/>
    <g id="Group_2548" data-name="Group 2548" transform="translate(12.836 11.539)">
      <path id="Path_3898" data-name="Path 3898" d="M186.3,389.056c.1.028.193.057.29.081a2.147,2.147,0,0,1,1.6,2.372,2.152,2.152,0,0,1-4.258.1,1.089,1.089,0,0,0-.044-.141v-.482a.575.575,0,0,0,.039-.1,2.116,2.116,0,0,1,1.455-1.711c.141-.051.291-.081.438-.122Z" transform="translate(-183.889 -389.056)" fill="#fff"/>
      <path id="Path_3899" data-name="Path 3899" d="M191.218,404.568H187.5V392.581h3.557v1.6c.042-.012.062-.012.067-.021a3.894,3.894,0,0,1,3.46-1.876,5.083,5.083,0,0,1,2.39.456,3.45,3.45,0,0,1,1.786,2.248,8.6,8.6,0,0,1,.336,2.469c.016,2.312.011,4.624.012,6.936,0,.042-.007.085-.012.138h-3.718v-.258c0-1.982,0-3.965-.009-5.948a7.153,7.153,0,0,0-.113-1.242,1.73,1.73,0,0,0-2.179-1.522,1.908,1.908,0,0,0-1.771,1.865,9.141,9.141,0,0,0-.087,1.245c-.009,1.872,0,3.746,0,5.618Z" transform="translate(-181.119 -386.583)" fill="#fff"/>
      <path id="Path_3900" data-name="Path 3900" d="M187.775,392.454v11.974h-3.707V392.454Z" transform="translate(-183.752 -386.453)" fill="#fff"/>
    </g>
  </g>
</svg>
