<svg xmlns="http://www.w3.org/2000/svg" width="161" height="164" viewBox="0 0 161 164">
  <g id="Group_2385" data-name="Group 2385" transform="translate(0.146)">
    <g id="Rectangle_680" data-name="Rectangle 680" transform="translate(-0.146)" fill="#fff" stroke="#5b9c00" stroke-width="0.5">
      <rect width="161" height="164" rx="9" stroke="none"/>
      <rect x="0.25" y="0.25" width="160.5" height="163.5" rx="8.75" fill="none"/>
    </g>
    <text id="Pet_Friendly" data-name="Pet Friendly" transform="translate(19.294 111.182)" fill="#009ab5" font-size="14" font-family="Montserrat-SemiBold, Montserrat" font-weight="600"><tspan x="0" y="0">Pet Friendly</tspan></text>
    <g id="Ellipse_154" data-name="Ellipse 154" transform="translate(13.854 14)" fill="#009ab5" stroke="#5b9c00" stroke-width="0.4">
      <ellipse cx="32.5" cy="33" rx="32.5" ry="33" stroke="none"/>
      <ellipse cx="32.5" cy="33" rx="32.3" ry="32.8" fill="none"/>
    </g>
    <text id="This_facility_is_pet_friendly" data-name="This facility is pet
friendly" transform="translate(21.855 130)" fill="#343434" font-size="10" font-family="Montserrat-SemiBold, Montserrat" font-weight="600"><tspan x="0" y="0">This facility is pet</tspan><tspan x="0" y="14">friendly</tspan></text>
    <g id="Group_2384" data-name="Group 2384" transform="translate(26.047 29.905)">
      <path id="Path_3714" data-name="Path 3714" d="M-699.965,462.259c.383.116.777.2,1.147.353a6.146,6.146,0,0,1,3.689,4.134,7.1,7.1,0,0,1-1.422,7.065,5.407,5.407,0,0,1-8.442-.15,7.345,7.345,0,0,1,.767-10.076,5.277,5.277,0,0,1,2.667-1.252.819.819,0,0,0,.177-.073Zm-4.269,6.361a5.316,5.316,0,0,0,.945,3.368,3.063,3.063,0,0,0,4.806.405,4.54,4.54,0,0,0,1.3-3.074,4.721,4.721,0,0,0-1.406-3.813,2.929,2.929,0,0,0-3.749-.353A4.288,4.288,0,0,0-704.235,468.62Z" transform="translate(716.43 -462.259)" fill="#f8f8f8"/>
      <path id="Path_3715" data-name="Path 3715" d="M-830.681,565.352c.122-.452.206-.919.371-1.355a4.679,4.679,0,0,1,6.978-2.4A6.289,6.289,0,0,1-821,569.742a4.66,4.66,0,0,1-6.568,1.782,6.241,6.241,0,0,1-3.041-4.541.5.5,0,0,0-.069-.134Zm7.971,1.573a3.94,3.94,0,0,0-1.873-3.3,2.294,2.294,0,0,0-3.435,1.052,3.949,3.949,0,0,0,1.613,4.78,2.3,2.3,0,0,0,2.887-.3A3.11,3.11,0,0,0-822.711,566.924Z" transform="translate(830.681 -553.066)" fill="#f8f8f8"/>
      <path id="Path_3716" data-name="Path 3716" d="M-752.457,643.837a9.516,9.516,0,0,1,7.6,4.533c1.477,2.229,2.911,4.487,4.334,6.752a6.2,6.2,0,0,1-3.749,9.448,5.738,5.738,0,0,1-3.628-.22,13.676,13.676,0,0,0-5.34-1.142,13.172,13.172,0,0,0-4.886,1.048,6.2,6.2,0,0,1-8.461-4.246,5.54,5.54,0,0,1,.552-4.374c1.643-2.682,3.305-5.359,5.113-7.931C-759.152,645.189-756.189,643.83-752.457,643.837Zm-11.928,14.677a6.464,6.464,0,0,0,.058.665,3.859,3.859,0,0,0,5.323,2.88,22.986,22.986,0,0,1,3.377-.994,12.758,12.758,0,0,1,5.884.185c.958.255,1.885.623,2.831.924a3.713,3.713,0,0,0,2.794-.164,3.859,3.859,0,0,0,1.536-5.7c-1.423-2.171-2.8-4.373-4.209-6.551a7.232,7.232,0,0,0-5.789-3.506,6.869,6.869,0,0,0-6.414,2.868c-1.715,2.395-3.23,4.933-4.823,7.414A3.549,3.549,0,0,0-764.385,658.514Z" transform="translate(771.84 -629.505)" fill="#f8f8f8"/>
      <path id="Path_3717" data-name="Path 3717" d="M-536.092,507.885a6.851,6.851,0,0,1-2.984,5.767,4.983,4.983,0,0,1-7.733-2.568,6.763,6.763,0,0,1,3.315-8.182,5.043,5.043,0,0,1,7.169,3.507C-536.2,506.941-536.152,507.492-536.092,507.885Zm-2.384.031a11.164,11.164,0,0,0-.283-1.292,2.617,2.617,0,0,0-3.686-1.571,4.421,4.421,0,0,0-2.1,5.327,2.612,2.612,0,0,0,3.9,1.454A4.462,4.462,0,0,0-538.476,507.916Z" transform="translate(569.554 -499.21)" fill="#f8f8f8"/>
      <path id="Path_3718" data-name="Path 3718" d="M-454.664,639.076a6.217,6.217,0,0,1,6.071-6.168,4.61,4.61,0,0,1,4.5,3.867,6.231,6.231,0,0,1-5.125,7.127A4.648,4.648,0,0,1-454.664,639.076Zm2.378-.014a2.3,2.3,0,0,0,2.237,2.512,3.845,3.845,0,0,0,3.59-4.514,2.285,2.285,0,0,0-2.674-1.744A3.928,3.928,0,0,0-452.286,639.062Z" transform="translate(484.342 -619.438)" fill="#f8f8f8"/>
    </g>
  </g>
</svg>
