<svg xmlns="http://www.w3.org/2000/svg" width="161" height="164" viewBox="0 0 161 164">
  <g id="Group_2389" data-name="Group 2389" transform="translate(0 0.467)">
    <g id="Rectangle_682" data-name="Rectangle 682" transform="translate(0 -0.467)" fill="#fff" stroke="#5b9c00" stroke-width="0.5">
      <rect width="161" height="164" rx="9" stroke="none"/>
      <rect x="0.25" y="0.25" width="160.5" height="163.5" rx="8.75" fill="none"/>
    </g>
    <text id="Play_Ground" data-name="Play Ground" transform="translate(19.294 111.182)" fill="#efaa0e" font-size="14" font-family="Montserrat-SemiBold, Montserrat" font-weight="600"><tspan x="0" y="0">Play Ground</tspan></text>
    <g id="Ellipse_156" data-name="Ellipse 156" transform="translate(14 14.533)" fill="#efaa0e" stroke="#5b9c00" stroke-width="0.4">
      <ellipse cx="32.5" cy="33" rx="32.5" ry="33" stroke="none"/>
      <ellipse cx="32.5" cy="33" rx="32.3" ry="32.8" fill="none"/>
    </g>
    <text id="This_family_has_a_playground_for_kids" data-name="This family has a
playground for kids" transform="translate(22 129.533)" fill="#343434" font-size="10" font-family="Montserrat-SemiBold, Montserrat" font-weight="600"><tspan x="0" y="0">This family has a</tspan><tspan x="0" y="14">playground for kids</tspan></text>
    <g id="Group_2388" data-name="Group 2388" transform="translate(26.047 32.799)">
      <path id="Path_3751" data-name="Path 3751" d="M2492.261,787.8a1.826,1.826,0,0,1,1.546-1.144c.944-.145,1.877-.37,2.866-.57-.157-.046-.27-.081-.384-.113a1.947,1.947,0,0,1-1.533-1.946q-.023-3.382,0-6.764a1.878,1.878,0,0,1,1.675-1.886,13.076,13.076,0,0,1,2.392,0,1.867,1.867,0,0,1,1.723,1.714,9.434,9.434,0,0,1,.008,1.149l-2.219-1.54-.053.057c.183.2.366.405.548.609.683.767,1.361,1.539,2.057,2.294a.613.613,0,0,0,.436.166c1.423-.1,2.843-.227,4.265-.332a1.216,1.216,0,0,1,1.306,1.135,1.188,1.188,0,0,1-1.1,1.242c-1.673.142-3.348.263-5.021.4a1.415,1.415,0,0,1-1.261-.543c-.858-.981-1.735-1.946-2.662-2.881l2.047,4.139-.835.193,0,.077h.4q2.542-.008,5.083-.015a1.543,1.543,0,0,1,1.365.606,1.485,1.485,0,0,1-.149,1.877c-.6.765-1.213,1.523-1.819,2.285q-1.57,1.972-3.138,3.945a1.447,1.447,0,0,1-2.332.122,1.477,1.477,0,0,1,.112-1.941q1.118-1.41,2.243-2.816c.3-.373.591-.747.925-1.17H2497.9l-.012.031,1.125.252c-.456.573-.929,1.079-1.3,1.653a2.206,2.206,0,0,1-1.814,1.088c-.527.041-1.043.2-1.567.3-1.162.208-1.51.044-2.078-.958Z" transform="translate(-2492.261 -763.128)" fill="#f8f8f8"/>
      <path id="Path_3752" data-name="Path 3752" d="M2621.447,728.541l-1.873,2.092c-.266.3-.533.6-.8.9a1.216,1.216,0,0,1-1.063.45c-1.658-.153-3.317-.314-4.975-.473-.345-.033-.69-.062-1.033-.114a1.188,1.188,0,0,1-1.018-1.272,1.2,1.2,0,0,1,1.3-1.093c1.7.157,3.4.331,5.094.486a.512.512,0,0,0,.378-.116c.888-.975,1.762-1.963,2.6-3.005l-2.187,1.51c-.3-1.326.244-2.551,1.374-2.746a10.334,10.334,0,0,1,2.935-.025,1.812,1.812,0,0,1,1.441,1.831q.014,3.363,0,6.726a2.386,2.386,0,0,1-.665,1.65c.518-.093,1.035-.194,1.554-.278a1.427,1.427,0,0,1,.533,2.8c-.989.209-1.985.386-2.977.58-.847.165-1.693.335-2.65.525l1.118-1.852c-.852.827-1.674,1.613-2.475,2.419a.716.716,0,0,0-.091.45c-.006,1.855,0,3.709-.006,5.564a1.429,1.429,0,0,1-2.818.452,3.753,3.753,0,0,1-.047-.637c0-2,.008-4-.008-6a2.044,2.044,0,0,1,.662-1.6c.8-.764,1.565-1.567,2.344-2.354.09-.091.174-.187.263-.284-.034-.023-.051-.039-.056-.036-1.24.777-2.49,1.54-3.715,2.34a1.5,1.5,0,0,0-.533,1.359,7.775,7.775,0,0,0,.006.84c.025.294-.079.417-.375.472-1.687.315-3.369.65-5.054.979l-1.725.339v4.553h1.829c.254,0,.507-.005.761,0a1.194,1.194,0,1,1,.013,2.388c-1.027.015-2.055.005-3.082.005-1.508,0-3.016,0-4.524,0a1.21,1.21,0,0,1-1.161-.821,1.125,1.125,0,0,1,.423-1.312,1.71,1.71,0,0,1,.817-.248c.823-.032,1.647-.011,2.491-.011v-4.081l-6.571,1.281c.668-1.056,1.8-1.814,1.622-3.238,1.325-.26,2.614-.514,3.9-.765,2.911-.567,5.824-1.128,8.732-1.711a.656.656,0,0,0,.394-.361c.237-.592.437-1.2.639-1.8a1.612,1.612,0,0,1,1.386-1.2c1.328-.2,2.648-.461,3.973-.684a1.109,1.109,0,0,0,.888-.6q1.009-2.04,2.009-4.085C2621.46,728.691,2621.447,728.648,2621.447,728.541Z" transform="translate(-2585.19 -718.894)" fill="#f8f8f8"/>
      <path id="Path_3753" data-name="Path 3753" d="M2530.853,729.532a2.623,2.623,0,0,1,0-5.245,2.668,2.668,0,0,1,2.648,2.648A2.64,2.64,0,0,1,2530.853,729.532Z" transform="translate(-2523.906 -718.23)" fill="#f8f8f8"/>
      <path id="Path_3754" data-name="Path 3754" d="M2755.292,679.18a2.619,2.619,0,1,1,.042-5.237,2.619,2.619,0,0,1-.042,5.237Z" transform="translate(-2721.339 -673.943)" fill="#f8f8f8"/>
      <path id="Path_3755" data-name="Path 3755" d="M2704.8,864.371l3.237-.632a14.514,14.514,0,0,1-.672,1.645,1.363,1.363,0,0,1-1.651.54A1.4,1.4,0,0,1,2704.8,864.371Z" transform="translate(-2679.222 -840.905)" fill="#f8f8f8"/>
    </g>
  </g>
</svg>
