<?xml version="1.0" encoding="utf-8"?>
<!-- Generator: Adobe Illustrator 23.0.2, SVG Export Plug-In . SVG Version: 6.00 Build 0)  -->
<svg version="1.1" id="Layer_1" xmlns="http://www.w3.org/2000/svg" xmlns:xlink="http://www.w3.org/1999/xlink" x="0px" y="0px"
	 viewBox="0 0 198.6 53.8" style="enable-background:new 0 0 198.6 53.8;" xml:space="preserve">
<style type="text/css">
	.st0{fill:#F8F8F8;}
</style>
<g id="Group_2493" transform="translate(-160.643 -341.061)">
	<path id="Path_3858" class="st0" d="M183.4,375.9l-7.1-10.2c-0.4,0-0.9,0.1-1.3,0h-7.9v10.1h-6.5v-34.8H175
		c9.1,0,14.8,4.7,14.8,12.4c0.2,4.9-2.8,9.4-7.4,11l8,11.4L183.4,375.9z M174.7,346.5h-7.6v13.9h7.6c5.7,0,8.6-2.6,8.6-7
		S180.3,346.5,174.7,346.5"/>
	<path id="Path_3859" class="st0" d="M218.1,364.6h-20.8c0.7,3.9,4,6.4,8.6,6.4c2.7,0.1,5.3-0.9,7.2-2.9l3.3,3.8
		c-2.4,2.8-6.1,4.3-10.7,4.3c-8.9,0-14.7-5.7-14.7-13.6s5.8-13.6,13.7-13.6c7.8,0,13.4,5.4,13.4,13.7
		C218.2,363.2,218.1,364,218.1,364.6 M197.2,360.5h15.1c-0.4-3.8-3.7-6.6-7.5-6.5C201,353.8,197.7,356.7,197.2,360.5"/>
	<path id="Path_3860" class="st0" d="M251.8,341.1v34.8h-6.5v-14.9h-18v14.9h-6.5v-34.8h6.5v14.4h18v-14.4H251.8z"/>
	<path id="Path_3861" class="st0" d="M329.7,360.6v15.2h-6.2v-14.4c0-4.7-2.2-7-6-7c-4.1,0-6.9,2.7-6.9,8v13.5h-6.2v-14.4
		c0-4.7-2.2-7-6-7c-4.1,0-6.9,2.7-6.9,8v13.5h-6.2v-26.5h5.9v3.4c2.2-2.5,5.4-3.8,8.7-3.7c3.9,0,7.1,1.4,8.9,4.4
		c2.5-2.9,6.1-4.6,9.9-4.4C325.3,349,329.7,352.6,329.7,360.6"/>
	<path id="Path_3862" class="st0" d="M359.1,364.6h-20.8c0.7,3.9,4,6.4,8.6,6.4c2.7,0.1,5.3-0.9,7.2-2.9l3.3,3.8
		c-2.4,2.8-6.1,4.3-10.7,4.3c-8.9,0-14.7-5.7-14.7-13.6s5.8-13.6,13.7-13.6c7.8,0,13.4,5.4,13.4,13.7
		C359.2,363.2,359.2,364,359.1,364.6 M338.3,360.4h15.1c-0.4-3.8-3.7-6.6-7.5-6.5C342,353.8,338.7,356.6,338.3,360.4"/>
	<rect id="Rectangle_717" x="267.1" y="356.9" class="st0" width="3.3" height="3.3"/>
	<path id="Path_3863" class="st0" d="M282.9,362.4v-8.2l-14.1-11.6l-14.1,11.6v8.1c0,0.1,0,0.2,0,0.3c0,7.8,6.3,14.1,14.1,14.1
		c7.8,0,14.1-6.3,14.1-14.1C282.9,362.5,282.9,362.4,282.9,362.4 M277.1,362.6c0,4.6-3.7,8.3-8.3,8.4s-8.3-3.7-8.4-8.3c0,0,0,0,0,0
		c0-0.1,0-0.5,0-0.6v-5.1l8.4-6.9l8.4,6.9v5.5C277.1,362.5,277.1,362.5,277.1,362.6"/>
	<path id="Path_3864" class="st0" d="M251.8,341.1v34.8h-6.5V361h-18v14.9h-6.5v-34.8h6.5v14.4h18v-14.4H251.8z"/>
</g>
<g>
	<g>
		<path class="st0" d="M102.7,48.9v-7.1h-2.8V41h6.3v0.7h-2.8v7.1H102.7z"/>
		<path class="st0" d="M109.1,48.9c-0.4,0-0.8-0.1-1.1-0.2s-0.6-0.3-0.7-0.6c-0.2-0.3-0.3-0.6-0.3-0.9c0-0.3,0.1-0.6,0.2-0.8
			s0.4-0.5,0.7-0.6c0.3-0.2,0.8-0.2,1.3-0.2h2v0.6h-2c-0.6,0-1,0.1-1.2,0.3c-0.2,0.2-0.3,0.5-0.3,0.8c0,0.3,0.1,0.6,0.4,0.8
			c0.3,0.2,0.6,0.3,1.1,0.3c0.4,0,0.8-0.1,1.2-0.3c0.3-0.2,0.6-0.5,0.7-0.9l0.2,0.5c-0.1,0.4-0.4,0.7-0.8,0.9S109.6,48.9,109.1,48.9
			z M111.1,48.9v-1.3l0-0.2v-2.2c0-0.5-0.1-0.9-0.4-1.2c-0.3-0.3-0.7-0.4-1.2-0.4c-0.4,0-0.7,0.1-1.1,0.2c-0.3,0.1-0.6,0.3-0.9,0.5
			l-0.4-0.6c0.3-0.3,0.7-0.4,1.1-0.6c0.4-0.1,0.9-0.2,1.3-0.2c0.8,0,1.3,0.2,1.8,0.6c0.4,0.4,0.6,0.9,0.6,1.7v3.6H111.1z"/>
		<path class="st0" d="M114,48.9v-8.3h0.8v8.3H114z M114.6,47.3l0-1l3.7-3.3h1l-2.6,2.5l-0.4,0.4L114.6,47.3z M118.6,48.9l-2.5-3.1
			l0.5-0.6l2.9,3.7H118.6z"/>
		<path class="st0" d="M121.1,41.7c-0.2,0-0.3-0.1-0.4-0.2c-0.1-0.1-0.2-0.2-0.2-0.4c0-0.2,0.1-0.3,0.2-0.4c0.1-0.1,0.3-0.2,0.4-0.2
			s0.3,0.1,0.4,0.2s0.2,0.2,0.2,0.4c0,0.2-0.1,0.3-0.2,0.4C121.5,41.6,121.3,41.7,121.1,41.7z M120.7,48.9V43h0.8v5.9H120.7z"/>
		<path class="st0" d="M126.7,42.9c0.5,0,0.9,0.1,1.3,0.3c0.4,0.2,0.6,0.5,0.9,0.8c0.2,0.4,0.3,0.8,0.3,1.4v3.4h-0.8v-3.3
			c0-0.6-0.2-1.1-0.5-1.4s-0.7-0.5-1.3-0.5c-0.4,0-0.8,0.1-1.1,0.3s-0.5,0.4-0.7,0.7c-0.2,0.3-0.3,0.7-0.3,1.1v3.1h-0.8V43h0.8v1.6
			l-0.1-0.3c0.2-0.4,0.5-0.8,0.9-1S126.2,42.9,126.7,42.9z"/>
		<path class="st0" d="M133.7,48.6c-0.6,0-1.1-0.1-1.5-0.4c-0.4-0.2-0.8-0.6-1.1-1c-0.3-0.4-0.4-0.9-0.4-1.5s0.1-1.1,0.4-1.5
			c0.3-0.4,0.6-0.8,1.1-1c0.4-0.2,1-0.4,1.5-0.4c0.5,0,1,0.1,1.4,0.3s0.8,0.5,1,1c0.2,0.4,0.4,0.9,0.4,1.6c0,0.6-0.1,1.1-0.4,1.6
			c-0.2,0.4-0.6,0.8-1,1S134.2,48.6,133.7,48.6z M133.8,51.1c-0.5,0-1.1-0.1-1.5-0.2c-0.5-0.2-0.9-0.4-1.2-0.7l0.4-0.6
			c0.3,0.2,0.6,0.4,1,0.6c0.4,0.1,0.8,0.2,1.3,0.2c0.7,0,1.3-0.2,1.6-0.5c0.4-0.3,0.5-0.9,0.5-1.6v-1.5l0.1-1l-0.1-1V43h0.8v5.2
			c0,1-0.2,1.8-0.7,2.2S134.8,51.1,133.8,51.1z M133.8,47.9c0.4,0,0.8-0.1,1.2-0.3s0.6-0.4,0.8-0.8c0.2-0.3,0.3-0.7,0.3-1.1
			c0-0.4-0.1-0.8-0.3-1.1c-0.2-0.3-0.5-0.6-0.8-0.8s-0.7-0.3-1.2-0.3c-0.4,0-0.8,0.1-1.1,0.3s-0.6,0.4-0.8,0.8
			c-0.2,0.3-0.3,0.7-0.3,1.1c0,0.4,0.1,0.8,0.3,1.1c0.2,0.3,0.5,0.6,0.8,0.8S133.3,47.9,133.8,47.9z"/>
		<path class="st0" d="M142,51.1c-0.3,0-0.5,0-0.8-0.1s-0.5-0.2-0.6-0.4l0.4-0.6c0.1,0.1,0.3,0.3,0.5,0.3c0.2,0.1,0.4,0.1,0.6,0.1
			c0.3,0,0.5-0.1,0.7-0.2s0.4-0.4,0.5-0.8l0.4-0.9l0.1-0.1l2.4-5.5h0.8l-2.9,6.6c-0.2,0.4-0.3,0.7-0.5,0.9c-0.2,0.2-0.4,0.4-0.6,0.5
			C142.5,51,142.2,51.1,142,51.1z M143.5,49l-2.7-6h0.8l2.4,5.4L143.5,49z"/>
		<path class="st0" d="M150.4,48.9c-0.6,0-1.1-0.1-1.5-0.4c-0.4-0.3-0.8-0.6-1.1-1.1c-0.3-0.5-0.4-1-0.4-1.5c0-0.6,0.1-1.1,0.4-1.6
			c0.3-0.4,0.6-0.8,1.1-1.1c0.4-0.3,1-0.4,1.5-0.4c0.6,0,1.1,0.1,1.5,0.4c0.5,0.3,0.8,0.6,1.1,1.1c0.3,0.4,0.4,1,0.4,1.5
			c0,0.6-0.1,1.1-0.4,1.5c-0.3,0.5-0.6,0.8-1.1,1.1S150.9,48.9,150.4,48.9z M150.4,48.2c0.4,0,0.8-0.1,1.1-0.3s0.6-0.5,0.8-0.8
			c0.2-0.3,0.3-0.7,0.3-1.2c0-0.5-0.1-0.9-0.3-1.2c-0.2-0.3-0.5-0.6-0.8-0.8s-0.7-0.3-1.1-0.3s-0.8,0.1-1.1,0.3s-0.6,0.5-0.8,0.8
			c-0.2,0.3-0.3,0.7-0.3,1.2c0,0.5,0.1,0.9,0.3,1.2s0.5,0.6,0.8,0.8C149.6,48.1,150,48.2,150.4,48.2z"/>
		<path class="st0" d="M157.4,48.9c-0.5,0-0.9-0.1-1.3-0.3s-0.7-0.5-0.9-0.8s-0.3-0.8-0.3-1.4V43h0.8v3.3c0,0.6,0.2,1.1,0.5,1.4
			s0.7,0.5,1.3,0.5c0.4,0,0.8-0.1,1.1-0.3c0.3-0.2,0.5-0.4,0.7-0.7c0.2-0.3,0.2-0.7,0.2-1.2V43h0.8v5.9h-0.8v-1.6l0.1,0.3
			c-0.2,0.4-0.5,0.8-0.9,1S157.9,48.9,157.4,48.9z"/>
		<path class="st0" d="M166.4,48.9h-0.8V41h0.8V48.9z M171.4,45.2h-5.1v-0.7h5.1V45.2z M171.3,41h0.8v7.8h-0.8V41z"/>
		<path class="st0" d="M176.9,48.9c-0.6,0-1.1-0.1-1.5-0.4c-0.4-0.3-0.8-0.6-1.1-1.1c-0.3-0.5-0.4-1-0.4-1.5c0-0.6,0.1-1.1,0.4-1.6
			c0.3-0.4,0.6-0.8,1.1-1.1c0.4-0.3,1-0.4,1.5-0.4c0.6,0,1.1,0.1,1.5,0.4c0.5,0.3,0.8,0.6,1.1,1.1c0.3,0.4,0.4,1,0.4,1.5
			c0,0.6-0.1,1.1-0.4,1.5c-0.3,0.5-0.6,0.8-1.1,1.1S177.5,48.9,176.9,48.9z M176.9,48.2c0.4,0,0.8-0.1,1.1-0.3s0.6-0.5,0.8-0.8
			c0.2-0.3,0.3-0.7,0.3-1.2c0-0.5-0.1-0.9-0.3-1.2c-0.2-0.3-0.5-0.6-0.8-0.8s-0.7-0.3-1.1-0.3s-0.8,0.1-1.1,0.3s-0.6,0.5-0.8,0.8
			c-0.2,0.3-0.3,0.7-0.3,1.2c0,0.5,0.1,0.9,0.3,1.2s0.5,0.6,0.8,0.8C176.1,48.1,176.5,48.2,176.9,48.2z"/>
		<path class="st0" d="M188.9,42.9c0.5,0,0.9,0.1,1.2,0.3c0.4,0.2,0.6,0.5,0.8,0.8c0.2,0.4,0.3,0.8,0.3,1.4v3.4h-0.8v-3.3
			c0-0.6-0.1-1.1-0.4-1.4s-0.7-0.5-1.2-0.5c-0.4,0-0.8,0.1-1,0.3s-0.5,0.4-0.7,0.7c-0.2,0.3-0.2,0.7-0.2,1.1v3.1H186v-3.3
			c0-0.6-0.1-1.1-0.4-1.4c-0.3-0.3-0.7-0.5-1.3-0.5c-0.4,0-0.7,0.1-1,0.3c-0.3,0.2-0.5,0.4-0.7,0.7c-0.2,0.3-0.2,0.7-0.2,1.1v3.1
			h-0.8V43h0.8v1.6l-0.1-0.3c0.2-0.4,0.5-0.8,0.9-1c0.4-0.2,0.9-0.4,1.4-0.4c0.6,0,1.1,0.1,1.5,0.4c0.4,0.3,0.7,0.7,0.8,1.3
			l-0.3-0.1c0.2-0.5,0.5-0.9,0.9-1.2S188.3,42.9,188.9,42.9z"/>
		<path class="st0" d="M195.9,48.9c-0.6,0-1.1-0.1-1.6-0.4c-0.5-0.3-0.8-0.6-1.1-1.1c-0.3-0.5-0.4-1-0.4-1.5s0.1-1.1,0.4-1.5
			c0.3-0.4,0.6-0.8,1-1.1c0.4-0.3,0.9-0.4,1.5-0.4c0.6,0,1,0.1,1.5,0.4c0.4,0.3,0.8,0.6,1,1.1c0.2,0.5,0.4,1,0.4,1.6
			c0,0,0,0.1,0,0.1c0,0,0,0.1,0,0.1h-5.1v-0.6h4.7l-0.3,0.2c0-0.4-0.1-0.8-0.3-1.1c-0.2-0.3-0.4-0.6-0.7-0.8s-0.7-0.3-1.1-0.3
			c-0.4,0-0.8,0.1-1.1,0.3c-0.3,0.2-0.6,0.4-0.8,0.8s-0.3,0.7-0.3,1.2V46c0,0.4,0.1,0.8,0.3,1.2c0.2,0.3,0.5,0.6,0.8,0.8
			c0.4,0.2,0.8,0.3,1.2,0.3c0.4,0,0.7-0.1,1-0.2s0.6-0.3,0.8-0.6l0.4,0.5c-0.3,0.3-0.6,0.6-1,0.7C196.8,48.8,196.4,48.9,195.9,48.9z
			"/>
	</g>
</g>
</svg>
