<svg xmlns="http://www.w3.org/2000/svg" width="85" height="85" viewBox="0 0 85 85">
  <g id="Group_2737" data-name="Group 2737" transform="translate(-924 -1275)">
    <circle id="Ellipse_253" data-name="Ellipse 253" cx="42.5" cy="42.5" r="42.5" transform="translate(924 1275)" fill="#1267b1"/>
    <path id="Path_4168" data-name="Path 4168" d="M606.621.213H582.179a.97.97,0,0,0-.158-.054,5.8,5.8,0,0,1-4.987-5.836q0-6.246,0-12.492a5.521,5.521,0,0,1,1.854-4.24q5.8-5.289,11.629-10.555a5.586,5.586,0,0,1,3.751-1.492,5.839,5.839,0,0,1,4.134,1.649q5.733,5.216,11.476,10.422a5.235,5.235,0,0,1,1.487,2.265c.14.425.225.868.335,1.3V-5.2c-.023.108-.051.214-.07.323a5.819,5.819,0,0,1-3.654,4.726A11.339,11.339,0,0,1,606.621.213ZM594.3-3.111q5.686,0,11.372,0a2.277,2.277,0,0,0,2.378-2.325q.012-6.3,0-12.593a2.632,2.632,0,0,0-.9-1.978c-3.74-3.417-7.511-6.8-11.235-10.233a2.437,2.437,0,0,0-3.254,0q-1.709,1.542-3.409,3.093-3.985,3.616-7.976,7.227a1.956,1.956,0,0,0-.712,1.149,5.786,5.786,0,0,0-.071.909q-.007,6.11,0,12.221a2.347,2.347,0,0,0,2.534,2.529Z" transform="translate(372 1334.488)" fill="#f8f8f8"/>
  </g>
</svg>
