<svg xmlns="http://www.w3.org/2000/svg" width="94.044" height="81.738" viewBox="0 0 94.044 81.738">
  <g id="Group_1142" data-name="Group 1142" transform="translate(-835.475 -28.344)">
    <path id="Path_2600" data-name="Path 2600" d="M929.519,101.421a21.1,21.1,0,0,1-.8,2.506,9.626,9.626,0,0,1-8.952,6.086c-4.158.13-8.323.035-12.485.035q-30.619,0-61.238,0a10.143,10.143,0,0,1-9.949-6.714,11.835,11.835,0,0,1-.592-3.681c-.05-8.23-.032-16.46-.024-24.69.005-6.018,4.308-10.529,10.352-10.5a6.955,6.955,0,0,0,5.27-2.184c7.979-7.593,16.057-15.084,24.113-22.6a1.08,1.08,0,0,0,.362-1.382,7.41,7.41,0,0,1,6.032-9.806,3.425,3.425,0,0,0,.52-.151h.918a3.6,3.6,0,0,0,.524.147,7.383,7.383,0,0,1,6.079,9.7,1.244,1.244,0,0,0,.4,1.556c8.038,7.487,16.088,14.962,24.047,22.532a6.817,6.817,0,0,0,5.27,2.186,9.675,9.675,0,0,1,9.574,6.757c.236.688.383,1.405.571,2.109ZM882.551,67.79q-18.087,0-36.174.008a10.153,10.153,0,0,0-2.278.183,6.653,6.653,0,0,0-5.256,6.829c-.036,8.26-.017,16.521,0,24.782a7.768,7.768,0,0,0,.247,1.993c.888,3.279,3.459,5.11,7.143,5.111q36.266.005,72.532-.008a9.011,9.011,0,0,0,2.269-.243,6.72,6.72,0,0,0,5.133-6.936c.018-8.2.034-16.4-.027-24.6a8.14,8.14,0,0,0-.739-3.354c-1.277-2.67-3.567-3.777-6.49-3.773Q900.73,67.809,882.551,67.79Zm-28.758-3.476h57.628L887.255,41.709a7.6,7.6,0,0,1-9.3.005Zm28.8-32.53a4.075,4.075,0,1,0,4.11,4.065A4.1,4.1,0,0,0,882.6,31.784Z" transform="translate(0 0)"/>
    <text id="Rent" transform="translate(859.474 93.086)" font-size="25" font-family="Montserrat-Medium, Montserrat" font-weight="500"><tspan x="0" y="0">Rent</tspan></text>
  </g>
</svg>
