<svg xmlns="http://www.w3.org/2000/svg" width="161" height="164" viewBox="0 0 161 164">
  <g id="Group_2381" data-name="Group 2381" transform="translate(0 -0.066)">
    <g id="Rectangle_678" data-name="Rectangle 678" transform="translate(0 0.066)" fill="#fff" stroke="#5b9c00" stroke-width="0.5">
      <rect width="161" height="164" rx="9" stroke="none"/>
      <rect x="0.25" y="0.25" width="160.5" height="163.5" rx="8.75" fill="none"/>
    </g>
    <text id="Restaurant" transform="translate(19.294 111.182)" fill="#5b9c00" font-size="14" font-family="Montserrat-SemiBold, Montserrat" font-weight="600"><tspan x="0" y="0">Restaurant</tspan></text>
    <g id="Ellipse_152" data-name="Ellipse 152" transform="translate(14 14.066)" fill="#5b9c00" stroke="#5b9c00" stroke-width="0.4">
      <ellipse cx="32.5" cy="33" rx="32.5" ry="33" stroke="none"/>
      <ellipse cx="32.5" cy="33" rx="32.3" ry="32.8" fill="none"/>
    </g>
    <text id="A_restaurant_is_available_in_this_facility" data-name="A restaurant is available
in this facility" transform="translate(22 130.066)" fill="#343434" font-size="10" font-family="Montserrat-SemiBold, Montserrat" font-weight="600"><tspan x="0" y="0">A restaurant is available</tspan><tspan x="0" y="14">in this facility</tspan></text>
    <path id="Path_3711" data-name="Path 3711" d="M639.958-50.46a.879.879,0,0,1-.368-.837c.024-.6.006-1.2.007-1.8s.11-.733.71-.87c-.8-.691-1.583-1.359-2.354-2.044q-4.777-4.242-9.55-8.489a1.939,1.939,0,0,1-.767-2.133H626.57c-.674,0-1.348.01-2.021,0a1.725,1.725,0,0,1-1.7-1.707c-.009-.349,0-.7,0-1.047,0-.5.206-.7.7-.708.719,0,1.437,0,2.186,0a12.057,12.057,0,0,1,3.356-8.928,12.038,12.038,0,0,1,8.751-3.794v-1.145c-.176,0-.364.01-.551,0a.573.573,0,0,1-.572-.577.56.56,0,0,1,.578-.569q2.31-.013,4.621,0a.559.559,0,0,1,.573.574.575.575,0,0,1-.578.572c-.177.011-.356,0-.554,0v1.142a12.008,12.008,0,0,1,8.74,3.775,12.06,12.06,0,0,1,3.373,8.95h1.112c.313,0,.627.019.938,0a.851.851,0,0,1,.837.366v1.733a1.972,1.972,0,0,1-2.2,1.383c-1.1-.049-2.213-.011-3.319-.011h-.407a2.07,2.07,0,0,1-.171,1.544q-.948,2.042-1.861,4.1a1.424,1.424,0,0,0-.119.551c-.011,1.082,0,2.165-.007,3.248a2.52,2.52,0,0,1-.713,1.873,1.365,1.365,0,0,0-.41,1.379c.451.083.566.405.552.842-.019.6-.022,1.2,0,1.8a.883.883,0,0,1-.368.837ZM652.3-70.117a11.585,11.585,0,0,0-.276-3.046,10.915,10.915,0,0,0-9.63-8.421c-1.592-.125-3.2-.08-4.8-.059a9.062,9.062,0,0,0-2.071.251,10.822,10.822,0,0,0-8.385,8.407,9.315,9.315,0,0,0-.231,2.867Zm-6.345,16.19a3.3,3.3,0,0,0,0-.411,1.662,1.662,0,0,1,.645-1.645,1.544,1.544,0,0,0,.513-1.263c0-1.035.012-2.07-.007-3.1a2.658,2.658,0,0,1,.264-1.213c.642-1.371,1.262-2.752,1.884-4.132.25-.555.007-.931-.6-.94-.217,0-.435.015-.65,0a.791.791,0,0,0-.829.5c-.968,1.8-1.956,3.588-2.926,5.386a.925.925,0,0,1-.651.51c-.656.148-1.3.337-1.961.472a1.289,1.289,0,0,1-.69-.048c-1.791-.7-3.57-1.423-5.359-2.125a1.2,1.2,0,0,1-.685-.638c-.6-1.232-1.215-2.456-1.834-3.678a.9.9,0,0,0-1.17-.307c-.338.166-.4.468-.194.93.634,1.4,1.268,2.8,1.91,4.2a1.211,1.211,0,0,0,.3.395q4,3.482,8.018,6.952a.557.557,0,0,0,.3.161C643.46-53.923,644.685-53.927,645.952-53.927Zm.154-12.689H634.222a.671.671,0,0,0,.03.123c.547,1.1,1.09,2.194,1.649,3.284a.642.642,0,0,0,.32.252c1.223.5,2.481.921,3.667,1.494a3.484,3.484,0,0,0,3.056.173.952.952,0,0,0,.45-.344c.865-1.553,1.71-3.117,2.56-4.678C646-66.4,646.047-66.5,646.106-66.616Zm9.088-2.31H624.026c-.1.806,0,1.145.985,1.143q14.617-.024,29.234-.01c.12,0,.241.006.361,0a.579.579,0,0,0,.587-.6C655.2-68.563,655.194-68.731,655.194-68.926Zm-8.682,16.18h-5.732v1.113h5.732Zm-15.1-10.574.043-.03c-.037-.1-.069-.2-.111-.289q-.551-1.215-1.106-2.428c-.238-.522-.416-.649-.98-.554a.754.754,0,0,0-.5.378.643.643,0,0,0,.117.577C629.708-64.866,630.566-64.1,631.414-63.32Zm7.635-20.642v1.124h1.1v-1.124Z" transform="translate(-592.935 115.032)" fill="#f8f8f8"/>
  </g>
</svg>
