<svg xmlns="http://www.w3.org/2000/svg" width="80.885" height="85.128" viewBox="0 0 80.885 85.128">
  <g id="Group_1143" data-name="Group 1143" transform="translate(-794.158 -44.765)">
    <path id="Path_2605" data-name="Path 2605" d="M865.022,129.893a4.565,4.565,0,0,1-2.15-1.737q-5.492-7.306-11.027-14.579c-.179-.237-.372-.463-.624-.775l-3.208,3.99c-.833,1.036-1.675,2.066-2.5,3.112a2.574,2.574,0,0,1-4.728-1.2q-1.428-8.262-2.87-16.521c-.651-3.735-1.328-7.465-1.94-11.206-.11-.67-.338-.837-.991-.834-6.955.024-13.91.015-20.865.015q-6.276,0-12.552,0a7.058,7.058,0,0,1-7.409-7.419q-.012-15.252,0-30.5a7.068,7.068,0,0,1,7.444-7.47q25.894-.006,51.788,0a7.108,7.108,0,0,1,7.454,7.481q.01,14.877,0,29.755c0,3.622-.731,5.094-3.682,7.315.271.141.5.27.744.386q6.508,3.128,13.018,6.25a2.542,2.542,0,0,1,1.591,1.976,2.5,2.5,0,0,1-1.683,2.823c-2.513,1.087-5.039,2.145-7.559,3.216-.28.119-.555.247-.916.409.832,1.1,1.642,2.182,2.455,3.257q4.663,6.161,9.328,12.322c1.377,1.82,1.17,3.321-.648,4.7q-2.878,2.187-5.768,4.356c-.435.325-.918.587-1.379.878ZM835.3,87.329c-.045-.357-.068-.6-.109-.847-.156-.928-.307-1.857-.48-2.782a2.857,2.857,0,0,1,4.119-3.125q6.742,3.217,13.482,6.438a2.825,2.825,0,0,0,1.094.3,4.263,4.263,0,0,0,4.609-4.529q.012-15.211,0-30.423c0-3.058-1.726-4.766-4.806-4.767H801.75c-3.043,0-4.753,1.695-4.753,4.715q0,15.128,0,30.257c0,3.083,1.688,4.759,4.787,4.759H835.3Zm33.994,10.983-31.8-15.239,6.032,34.705c.294-.332.48-.525.647-.733q2.786-3.465,5.566-6.935c1.163-1.454,1.948-1.45,3.069.031q5.518,7.287,11.035,14.576c.58.766,1.165,1.53,1.78,2.339l6.571-4.975c-.241-.326-.4-.55-.57-.771l-12.138-16.034c-1.254-1.656-1.065-2.324.876-3.146q2.79-1.181,5.575-2.373C866.991,99.306,868.046,98.849,869.292,98.313Z"/>
    <text id="Sell" transform="translate(809.158 72.051)" fill="#020202" font-size="24" font-family="Montserrat-Medium, Montserrat" font-weight="500"><tspan x="0" y="0">Sell</tspan></text>
  </g>
</svg>
