<svg xmlns="http://www.w3.org/2000/svg" width="161" height="164" viewBox="0 0 161 164">
  <g id="Group_2396" data-name="Group 2396" transform="translate(-0.246)">
    <g id="Rectangle_686" data-name="Rectangle 686" transform="translate(0.246)" fill="#fff" stroke="#5b9c00" stroke-width="0.5">
      <rect width="161" height="164" rx="9" stroke="none"/>
      <rect x="0.25" y="0.25" width="160.5" height="163.5" rx="8.75" fill="none"/>
    </g>
    <text id="Hot_Tub" data-name="Hot Tub" transform="translate(19.294 111.182)" fill="#d80606" font-size="14" font-family="Montserrat-SemiBold, Montserrat" font-weight="600"><tspan x="0" y="0">Hot Tub</tspan></text>
    <g id="Ellipse_160" data-name="Ellipse 160" transform="translate(13.246 14)" fill="#d80606" stroke="#5b9c00" stroke-width="0.4">
      <circle cx="33" cy="33" r="33" stroke="none"/>
      <circle cx="33" cy="33" r="32.8" fill="none"/>
    </g>
    <text id="This_facility_has_hot_tub" data-name="This facility has hot tub" transform="translate(22.246 130)" fill="#343434" font-size="10" font-family="Montserrat-SemiBold, Montserrat" font-weight="600"><tspan x="0" y="0">This facility has hot tub</tspan></text>
    <g id="Group_2395" data-name="Group 2395" transform="translate(30.87 31.835)">
      <path id="Path_3764" data-name="Path 3764" d="M531.357,704.213a1.907,1.907,0,0,1-.219-.235.505.505,0,0,1,.435-.79c.563-.012,1.127,0,1.69,0h.35a2.068,2.068,0,0,1,.471-1.619,1.989,1.989,0,0,1,1.605-.443c0-.338.012-.647-.008-.954-.005-.077-.1-.167-.17-.219a6.594,6.594,0,0,1-2.785-4.247,8.056,8.056,0,0,1-.132-1.468c-.017-1.348-.006-2.7-.006-4.044v-.4c-.2,0-.379.005-.556,0a1,1,0,0,1-.972-.991,4.706,4.706,0,0,1,.032-.932,2.063,2.063,0,0,1,2.056-1.692c.148,0,.3,0,.475,0v-.419q0-4.315,0-8.63a3.547,3.547,0,0,1,2.128-3.48,3.774,3.774,0,0,1,1.392-.318c.973-.048,1.951-.021,2.926-.013a3.339,3.339,0,0,1,2.3.9c.524.484,1.013,1.007,1.527,1.5a.656.656,0,0,0,.355.185,3.651,3.651,0,0,1,3.217,2.934c.032.177.04.359.064.538a1.053,1.053,0,0,1-1.12,1.167c-1.67,0-3.34.009-5.009,0a1.05,1.05,0,0,1-1.079-1.205,3.682,3.682,0,0,1,.721-2c-.263-.279-.51-.567-.789-.821a.642.642,0,0,0-.4-.1c-.835-.009-1.67-.008-2.5,0-.431,0-.627.19-.628.594q0,4.5,0,8.992c0,.049.006.1.012.183.217,0,.425-.007.632,0,1,.04,2.016.009,3.006.145a7.71,7.71,0,0,1,3.845,1.748c.1.083.205.161.326.256a3.78,3.78,0,0,1,1.672-.959,5.01,5.01,0,0,1,1.1-.159c1.871-.015,3.742,0,5.613-.006a3.919,3.919,0,0,1,3.544,1.9.428.428,0,0,0,.313.151c.955.012,1.911.006,2.867.007a2.1,2.1,0,0,1,2.265,1.631c.006.017.026.029.04.042v1.207a1.3,1.3,0,0,1-1.532.738c0,.2,0,.345,0,.494a17.53,17.53,0,0,1-.066,1.9,6.6,6.6,0,0,1-2.863,4.683c-.068.048-.159.125-.163.193-.017.316-.008.634-.008.978a1.969,1.969,0,0,1,1.607.445,2.081,2.081,0,0,1,.468,1.615c.627,0,1.229.013,1.829-.005a.778.778,0,0,1,.727.31v.724Zm25.657-11.307v.346c0,1.207-.03,2.415.01,3.621a1.614,1.614,0,0,1-1.673,1.683c-1.88-.031-3.762-.008-5.642-.011a2.006,2.006,0,0,1-.507-.05,1.543,1.543,0,0,1-1.161-1.6c-.007-1.207,0-2.414,0-3.621v-.39c-.185,0-.333,0-.482,0a8.381,8.381,0,0,1-5.6-2,4.629,4.629,0,0,0-3.025-1.091c-1.67-.008-3.339,0-5.009,0-.086,0-.173.011-.264.017,0,1.726,0,3.426,0,5.124a2.71,2.71,0,0,0,.078.536,5.635,5.635,0,0,0,5.645,4.615q7.121.023,14.242,0a5.592,5.592,0,0,0,4.668-2.334,6.8,6.8,0,0,0,1.051-4.845ZM550,688.278a.65.65,0,0,0,.059.106,4.12,4.12,0,0,1,1.1,3.03c-.025,1.82-.007,3.641-.006,5.462,0,.454.184.637.641.638q1.781,0,3.561,0c.4,0,.626-.19.627-.567,0-1.982.024-3.964-.008-5.945a2.743,2.743,0,0,0-2.44-2.709C552.371,688.224,551.2,688.278,550,688.278Zm3.668,14.892a2.781,2.781,0,0,0-.889-1.868.63.63,0,0,0-.392-.164q-5.884-.013-11.768,0a.523.523,0,0,0-.323.112,2.792,2.792,0,0,0-.951,1.922Zm-5.63-11.34c0-.252,0-.472,0-.693a.752.752,0,0,0-.8-.818,5.873,5.873,0,0,1-3.609-1.39,7.05,7.05,0,0,0-4.382-1.686c-.874-.027-1.749-.012-2.623-.013-1.146,0-2.292,0-3.438,0a1.006,1.006,0,0,0-1.088.94,5.661,5.661,0,0,0,0,.59h.352c2.212,0,4.423,0,6.635,0a5.542,5.542,0,0,1,.957.091,6.19,6.19,0,0,1,2.8,1.386A7.342,7.342,0,0,0,548.038,691.83Zm-13.366-5.674h1.017v-.37c0-2.907.019-5.814-.009-8.72a1.624,1.624,0,0,1,1.71-1.712c.853.042,1.709.011,2.564.008a1.534,1.534,0,0,1,1.138.466c.24.242.471.493.69.723l.983-.508c-.3-.3-.605-.588-.9-.888a2.668,2.668,0,0,0-1.976-.817c-.845,0-1.69,0-2.534,0a2.576,2.576,0,0,0-2.683,2.7q0,4.36,0,8.72Zm15.482,11.356c-.016-.273-.043-.522-.044-.771,0-1.82,0-3.64-.006-5.46a3.952,3.952,0,0,0-.1-.925,2.8,2.8,0,0,0-4.466-1.475,3.993,3.993,0,0,0,1.6.374,1.847,1.847,0,0,1,1.958,2.03q0,2.805,0,5.611c0,.378.156.584.476.612C549.771,697.525,549.971,697.511,550.154,697.511Zm-3.662-18.049a2.573,2.573,0,0,0-2.831-2.53,2.5,2.5,0,0,0-2.25,2.53Zm-9.765,21.224c0,.294,0,.595,0,.9a.525.525,0,0,1-.582.576c-.311,0-.623,0-.934,0a.5.5,0,0,0-.53.432,5.7,5.7,0,0,0,0,.573h3.512l.7-2Zm21.615,2.483c0-.153,0-.273,0-.393,0-.437-.182-.614-.625-.618-.231,0-.462,0-.693,0-.582,0-.737-.153-.737-.723,0-.257,0-.514,0-.746l-2.151.47.686,2.01Zm2.588-11.337c0-.115-.006-.2,0-.292a1.087,1.087,0,0,0-1.21-1.229c-.813.037-1.628.008-2.442.008h-.269v1.512Z" transform="translate(-531.047 -673.297)" fill="#f8f8f8"/>
      <path id="Path_3765" data-name="Path 3765" d="M609.782,741.959c-.026.079-.055.185-.095.287q-.466,1.173-.936,2.344c-.15.373-.417.518-.723.4s-.4-.411-.247-.786q.481-1.215.971-2.426a.5.5,0,0,1,.587-.355C609.615,741.473,609.743,741.664,609.782,741.959Z" transform="translate(-598.426 -733.165)" fill="#f8f8f8"/>
      <path id="Path_3766" data-name="Path 3766" d="M652.244,744.457a.488.488,0,0,1-.4.516.5.5,0,0,1-.605-.324c-.273-.667-.537-1.337-.8-2.006-.07-.177-.147-.351-.208-.531a.519.519,0,0,1,.29-.7.5.5,0,0,1,.668.293c.351.851.688,1.708,1.027,2.564A.9.9,0,0,1,652.244,744.457Z" transform="translate(-635.754 -733.131)" fill="#f8f8f8"/>
      <path id="Path_3767" data-name="Path 3767" d="M634.173,743.206c0,.4,0,.8,0,1.206a.509.509,0,0,1-.5.558.5.5,0,0,1-.53-.558q-.011-1.236,0-2.472a.521.521,0,1,1,1.034,0C634.177,742.362,634.173,742.784,634.173,743.206Z" transform="translate(-620.768 -733.114)" fill="#f8f8f8"/>
      <path id="Path_3768" data-name="Path 3768" d="M687.511,796.829c1.2,0,2.371-.054,3.533.014a2.743,2.743,0,0,1,2.44,2.709c.033,1.981.013,3.963.008,5.945,0,.377-.222.567-.627.567q-1.78,0-3.561,0c-.457,0-.641-.184-.641-.638,0-1.821-.019-3.642.006-5.462a4.12,4.12,0,0,0-1.1-3.03A.648.648,0,0,1,687.511,796.829Z" transform="translate(-668.558 -781.847)" fill="#d80606"/>
      <path id="Path_3769" data-name="Path 3769" d="M655.287,806.007c-.182,0-.383.014-.581,0-.32-.028-.476-.234-.476-.612q0-2.805,0-5.611a1.847,1.847,0,0,0-1.958-2.03,3.993,3.993,0,0,1-1.6-.374,2.8,2.8,0,0,1,4.466,1.475,3.949,3.949,0,0,1,.1.925c.009,1.82,0,3.64.006,5.46C655.244,805.485,655.271,805.734,655.287,806.007Z" transform="translate(-636.181 -781.792)" fill="#d80606"/>
      <path id="Path_3770" data-name="Path 3770" d="M560.9,844.182c0-.03,0-.06,0-.09-.016-.423.166-.679.493-.694s.535.241.544.652a3.6,3.6,0,0,0,3.343,3.453c.09,0,.181.006.271.02a.511.511,0,0,1,.492.569.489.489,0,0,1-.556.469,7.047,7.047,0,0,1-1.751-.376A4.517,4.517,0,0,1,560.9,844.182Z" transform="translate(-557.278 -822.793)" fill="#f8f8f8"/>
    </g>
  </g>
</svg>
