<svg xmlns="http://www.w3.org/2000/svg" width="41.911" height="41.911" viewBox="0 0 41.911 41.911">
  <g id="Group_2547" data-name="Group 2547" transform="translate(0.25 0.25)">
    <path id="Path_3897" data-name="Path 3897" d="M158.332,405.676H157.1c-.057-.009-.113-.023-.17-.027a11.365,11.365,0,0,1-4.783-1.372c-.21-.113-.412-.244-.616-.366a9.138,9.138,0,0,0,3.084-.291,7.985,7.985,0,0,0,2.771-1.4,4.14,4.14,0,0,1-3.739-2.806,4.438,4.438,0,0,0,1.773-.078,3.993,3.993,0,0,1-3.142-3.958c.277.106.551.231.837.311s.578.108.865.157a4.1,4.1,0,0,1-1.143-5.364,11.438,11.438,0,0,0,8.246,4.186,12.346,12.346,0,0,1,.009-1.515,4.013,4.013,0,0,1,6.763-2.294c.062.056.17.127.235.109.461-.124.922-.251,1.371-.417.36-.133.7-.32,1.074-.495a4.172,4.172,0,0,1-1.65,2.151,7.739,7.739,0,0,0,2.2-.586c-.049.078-.072.115-.1.15a7.778,7.778,0,0,1-1.738,1.8.357.357,0,0,0-.159.351,9.825,9.825,0,0,1-.189,2.363,11.762,11.762,0,0,1-3.022,5.945,10.748,10.748,0,0,1-6.581,3.331C158.977,405.606,158.654,405.639,158.332,405.676Z" transform="translate(-140.605 -376.999)" fill="#fff"/>
    <circle id="Ellipse_232" data-name="Ellipse 232" cx="20.706" cy="20.706" r="20.706" fill="none" stroke="#fff" stroke-width="0.5"/>
  </g>
</svg>
