<svg xmlns="http://www.w3.org/2000/svg" width="278.787" height="238.329" viewBox="0 0 278.787 238.329">
  <g id="Group_3756" data-name="Group 3756" transform="translate(-48.857 -86.68)">
    <g id="Background_Complete" data-name="Background Complete" transform="translate(57.69 86.68)">
      <g id="Group_3731" data-name="Group 3731">
        <g id="Group_3730" data-name="Group 3730">
          <g id="Group_3728" data-name="Group 3728" transform="translate(200.749 19.357)">
            <path id="Path_4974" data-name="Path 4974" d="M412.029,214.249c-8.6-13.093-.748-27.171-2.058-41.736s-15.151-17.745-12.532-30.089c3.036-14.314-5.051-28.056-14.216-28.056s-17.252,13.743-14.215,28.056c2.618,12.345-11.223,15.525-12.532,30.089s6.547,28.643-2.057,41.736-6.346,30.436-1.5,39.043a33.716,33.716,0,0,0,4.624,6.327,35.087,35.087,0,0,0,51.356,0,33.714,33.714,0,0,0,4.623-6.327C418.375,244.685,420.633,227.342,412.029,214.249Z" transform="translate(-348.622 -114.367)" fill="#e0e0e0"/>
            <path id="Rectangle_899" data-name="Rectangle 899" d="M4.349,0h0A4.349,4.349,0,0,1,8.7,4.349V77.574a0,0,0,0,1,0,0H0a0,0,0,0,1,0,0V4.349A4.349,4.349,0,0,1,4.349,0Z" transform="translate(30.254 109.821)" fill="#f0f0f0"/>
          </g>
          <g id="Group_3729" data-name="Group 3729" transform="translate(135.49 114.054)">
            <path id="Path_4975" data-name="Path 4975" d="M314.814,348.344H302.973v-73.22a5.938,5.938,0,0,1,5.92-5.92h0a5.937,5.937,0,0,1,5.92,5.92Z" transform="translate(-269.63 -255.646)" fill="#e0e0e0"/>
            <circle id="Ellipse_264" data-name="Ellipse 264" cx="36.473" cy="36.473" r="36.473" transform="translate(2.791)" fill="#f0f0f0"/>
            <circle id="Ellipse_265" data-name="Ellipse 265" cx="14.373" cy="14.373" r="14.373" transform="matrix(0.241, -0.971, 0.971, 0.241, 50.758, 32.553)" fill="#f0f0f0"/>
            <circle id="Ellipse_266" data-name="Ellipse 266" cx="8.51" cy="8.51" r="8.51" transform="translate(0 20.589) rotate(-80.747)" fill="#f0f0f0"/>
            <circle id="Ellipse_267" data-name="Ellipse 267" cx="5.973" cy="5.973" r="5.973" transform="translate(13.045 3.179)" fill="#f0f0f0"/>
          </g>
          <path id="Path_4976" data-name="Path 4976" d="M162.6,310.94A39.511,39.511,0,0,0,146.722,317c-.043-5.534-1.056-10.791-3.657-15.035a50.357,50.357,0,0,0-9.757,14.217c-.97-10.092-3.62-19.868-9.486-26.046-8.789,5.528-13.32,14.744-15.475,24.5A44.394,44.394,0,0,0,93.34,298.416c-5.378,5.665-7.094,13.5-6.952,21.518-6.109-7.113-12.895-12.666-19.508-13.318-1.628,11.267,1.839,21.889,6.246,30.264a33.5,33.5,0,0,0,29.694,17.761h28.725A33.256,33.256,0,0,0,161.011,337.3C164.649,330.451,166.379,321.633,162.6,310.94Z" transform="translate(-62.989 -147.889)" fill="#e0e0e0"/>
          <path id="Path_4977" data-name="Path 4977" d="M152.916,104.48c3.55-10.4.732-17.8-7.945-17.8-5.442,0-12.189,2.913-18.76,7.657-.742-2.7-2.833-4.325-6.2-4.325-5.92,0-14.078,5.008-20.48,12.073a9.8,9.8,0,0,0-6.67-2.7c-5.665-.319-12.526,2.558-18.491,7.238a3.208,3.208,0,0,0-2.626-1.348c-3.264-.182-7.683,2.723-9.878,6.483-.136.237-.258.464-.38.692h93.148C154.918,109.177,154.338,106.437,152.916,104.48Z" transform="translate(-61.491 -86.68)" fill="#f0f0f0"/>
          <path id="Path_4978" data-name="Path 4978" d="M173.451,198.691c1.734-5.079.357-8.695-3.881-8.695-2.658,0-5.954,1.423-9.164,3.74a2.834,2.834,0,0,0-3.027-2.113c-2.891,0-6.877,2.446-10,5.9a4.782,4.782,0,0,0-3.258-1.317c-2.767-.156-6.118,1.249-9.032,3.536a1.563,1.563,0,0,0-1.282-.658c-1.595-.089-3.753,1.329-4.825,3.166-.067.116-.127.227-.186.338h45.5A5.728,5.728,0,0,0,173.451,198.691Z" transform="translate(-81.739 -117.762)" fill="#f0f0f0"/>
          <path id="Path_4979" data-name="Path 4979" d="M289.5,138.851a7.468,7.468,0,0,0-1.079-.078c.335-5.073-1.6-8.312-5.747-8.312-2.988,0-6.656,1.691-10.394,4.553,1.07-9.848-2.355-16.248-10.111-16.248-6.256,0-14.177,4.163-22,10.953-.685-3.863-2.99-6.178-6.864-6.178-6.8,0-16.472,7.154-24.224,17.249,0,0,0,.013-.01,0a9.755,9.755,0,0,0-7.5-3.864c-6.479-.456-14.523,3.655-21.655,10.354a3.311,3.311,0,0,0-2.944-1.925c-3.543-.247-8.425,3.447-11.261,8.391H295.2C298.243,146.253,295.821,139.7,289.5,138.851Z" transform="translate(-92.846 -96.333)" fill="#f0f0f0"/>
        </g>
      </g>
    </g>
    <g id="Shadow" transform="translate(53.929 309.175)">
      <ellipse id="Ellipse_268" data-name="Ellipse 268" cx="135.558" cy="7.917" rx="135.558" ry="7.917" fill="#f5f5f5"/>
    </g>
    <g id="Mail" transform="translate(48.856 91.751)">
      <g id="Group_3742" data-name="Group 3742" transform="translate(0 0)">
        <g id="Group_3737" data-name="Group 3737">
          <g id="Group_3732" data-name="Group 3732" transform="translate(0 39.592)">
            <path id="Path_4980" data-name="Path 4980" d="M48.856,150.562,208.243,173.5l21.39,21.586Z" transform="translate(-48.856 -150.562)" fill="#407bff"/>
            <path id="Path_4981" data-name="Path 4981" d="M48.856,150.562,208.243,173.5l21.39,21.586Z" transform="translate(-48.856 -150.562)" fill="#fff" opacity="0.6"/>
          </g>
          <g id="Group_3733" data-name="Group 3733" transform="translate(0 39.592)">
            <path id="Path_4982" data-name="Path 4982" d="M48.856,150.562,208.243,173.5l-7.4,31.214Z" transform="translate(-48.856 -150.562)" fill="#407bff"/>
            <path id="Path_4983" data-name="Path 4983" d="M48.856,150.562,208.243,173.5l-7.4,31.214Z" transform="translate(-48.856 -150.562)" opacity="0.2"/>
          </g>
          <g id="Group_3735" data-name="Group 3735" transform="translate(57.525)">
            <g id="Group_3734" data-name="Group 3734">
              <path id="Path_4984" data-name="Path 4984" d="M222.326,97.389l9.255,43.366a4.379,4.379,0,0,1-3.359,5.181l-82.555,17.618a4.379,4.379,0,0,1-5.181-3.359l-9.255-43.366a4.371,4.371,0,0,1,3.359-5.181L217.145,94.03a4.373,4.373,0,0,1,5.181,3.359Z" transform="translate(-131.135 -93.934)" fill="#407bff"/>
              <path id="Path_4985" data-name="Path 4985" d="M222.326,97.389l9.255,43.366a4.379,4.379,0,0,1-3.359,5.181l-82.555,17.618a4.379,4.379,0,0,1-5.181-3.359l-9.255-43.366a4.371,4.371,0,0,1,3.359-5.181L217.145,94.03a4.373,4.373,0,0,1,5.181,3.359Z" transform="translate(-131.135 -93.934)" opacity="0.4"/>
            </g>
            <path id="Path_4986" data-name="Path 4986" d="M220.637,94.555l-27.587,33.861a17.775,17.775,0,0,1-21.777,4.647l-39.007-19.65a4.37,4.37,0,0,1,2.663-1.766L217.485,94.03A4.365,4.365,0,0,1,220.637,94.555Z" transform="translate(-131.475 -93.934)" fill="#407bff"/>
          </g>
          <g id="Group_3736" data-name="Group 3736" transform="translate(0 39.592)">
            <path id="Path_4987" data-name="Path 4987" d="M48.856,150.562,180.32,181.8l20.526,22.914Z" transform="translate(-48.856 -150.562)" fill="#407bff"/>
            <path id="Path_4988" data-name="Path 4988" d="M48.856,150.562,180.32,181.8l20.526,22.914Z" transform="translate(-48.856 -150.562)" fill="#fff" opacity="0.6"/>
          </g>
          <rect id="Rectangle_900" data-name="Rectangle 900" width="0.7" height="16.952" transform="matrix(0.505, -0.863, 0.863, 0.505, 47.601, 70.313)" fill="#407bff"/>
          <rect id="Rectangle_901" data-name="Rectangle 901" width="0.7" height="6.099" transform="translate(68.691 82.668) rotate(-59.637)" fill="#407bff"/>
          <path id="Path_4989" data-name="Path 4989" d="M48.856,150.562,180.32,181.8l-25.554,30.8Z" transform="translate(-48.856 -110.97)" fill="#407bff"/>
        </g>
        <g id="Group_3741" data-name="Group 3741" transform="translate(128.25 93.16)">
          <g id="Group_3738" data-name="Group 3738" transform="translate(24.773 8.356)">
            <path id="Path_4990" data-name="Path 4990" d="M290.541,250.409a1.392,1.392,0,0,1-.514-.1L268.61,241.83a1.4,1.4,0,0,1,1.03-2.6l21.418,8.479a1.4,1.4,0,0,1-.516,2.7Z" transform="translate(-267.726 -239.131)" fill="#407bff"/>
            <path id="Path_4991" data-name="Path 4991" d="M290.541,250.409a1.392,1.392,0,0,1-.514-.1L268.61,241.83a1.4,1.4,0,0,1,1.03-2.6l21.418,8.479a1.4,1.4,0,0,1-.516,2.7Z" transform="translate(-267.726 -239.131)" opacity="0.3"/>
          </g>
          <g id="Group_3739" data-name="Group 3739" transform="translate(33.427)">
            <path id="Path_4992" data-name="Path 4992" d="M293,234.532a1.392,1.392,0,0,1-.515-.1l-11.5-4.554a1.4,1.4,0,0,1,1.03-2.6l11.5,4.554a1.4,1.4,0,0,1-.515,2.7Z" transform="translate(-280.103 -227.18)" fill="#407bff"/>
            <path id="Path_4993" data-name="Path 4993" d="M293,234.532a1.392,1.392,0,0,1-.515-.1l-11.5-4.554a1.4,1.4,0,0,1,1.03-2.6l11.5,4.554a1.4,1.4,0,0,1-.515,2.7Z" transform="translate(-280.103 -227.18)" fill="#fff" opacity="0.5"/>
          </g>
          <g id="Group_3740" data-name="Group 3740" transform="translate(0 8.356)">
            <path id="Path_4994" data-name="Path 4994" d="M254.574,250.2a1.392,1.392,0,0,1-.514-.1l-20.883-8.267a1.4,1.4,0,0,1,1.03-2.6l20.882,8.268a1.4,1.4,0,0,1-.515,2.7Z" transform="translate(-232.293 -239.132)" fill="#407bff"/>
            <path id="Path_4995" data-name="Path 4995" d="M254.574,250.2a1.392,1.392,0,0,1-.514-.1l-20.883-8.267a1.4,1.4,0,0,1,1.03-2.6l20.882,8.268a1.4,1.4,0,0,1-.515,2.7Z" transform="translate(-232.293 -239.132)" opacity="0.3"/>
          </g>
        </g>
      </g>
    </g>
    <g id="Character" transform="translate(196.944 102.563)">
      <g id="Group_3755" data-name="Group 3755" transform="translate(0)">
        <path id="Path_4996" data-name="Path 4996" d="M369.305,164.821c1.851,3.617,3.552,7.236,5.165,10.945s3.123,7.456,4.432,11.39l.478,1.491c.08.265.2.7.269,1.01s.136.657.174.952a24.966,24.966,0,0,1,.238,3.4,59.608,59.608,0,0,1-.29,6.257,100.5,100.5,0,0,1-1.9,12.042l-3.833-.425c-.05-3.938-.087-7.915-.223-11.795-.069-1.936-.18-3.867-.376-5.689a22.869,22.869,0,0,0-.415-2.534c-.04-.2-.092-.347-.137-.509s-.079-.214-.155-.422l-.527-1.322c-1.461-3.538-3.1-7.107-4.782-10.658l-5.075-10.65Z" transform="translate(-291.256 -126.071)" fill="#e4897b"/>
        <path id="Path_4997" data-name="Path 4997" d="M378.373,230.42l-1.79,3.348,5.717,1.6s1.089-2.694-.208-4.816Z" transform="translate(-295.54 -145.806)" fill="#e4897b"/>
        <path id="Path_4998" data-name="Path 4998" d="M373.448,240.034l5.256.415,2.652-3.646-5.717-1.595Z" transform="translate(-294.596 -147.247)" fill="#e4897b"/>
        <path id="Path_4999" data-name="Path 4999" d="M337.45,129.9c-.083.406-.364.691-.63.637s-.413-.426-.331-.833.364-.691.63-.637S337.532,129.5,337.45,129.9Z" transform="translate(-283.471 -115.314)" fill="#263238"/>
        <path id="Path_5000" data-name="Path 5000" d="M336.267,131.264a14.827,14.827,0,0,1-2.645,3.078,2.389,2.389,0,0,0,1.865.758Z" transform="translate(-282.615 -115.976)" fill="#de5753"/>
        <path id="Path_5001" data-name="Path 5001" d="M339.754,126.943a.242.242,0,0,1-.179-.078,1.928,1.928,0,0,0-1.631-.655.244.244,0,0,1-.08-.48,2.415,2.415,0,0,1,2.07.805.243.243,0,0,1-.179.408Z" transform="translate(-283.83 -114.305)" fill="#263238"/>
        <path id="Path_5002" data-name="Path 5002" d="M349.437,138.432c-.736,3.757-1.472,10.643,1.157,13.15,0,0-1.027,3.811-8.009,3.811-7.677,0-3.669-3.811-3.669-3.811,4.19-1,4.082-4.109,3.352-7.029Z" transform="translate(-283.893 -118.132)" fill="#e4897b"/>
        <path id="Path_5003" data-name="Path 5003" d="M351.687,158.278c.554-1.842,1.165-3.949-.1-4.609-1.389-.726-8.993-1.467-11.614-.1s-1.879,5.1-1.879,5.1Z" transform="translate(-283.932 -122.456)" fill="#263238"/>
        <path id="Path_5004" data-name="Path 5004" d="M380.074,409.5a1.652,1.652,0,0,1-1.233-.34.5.5,0,0,1,0-.577.564.564,0,0,1,.382-.283c.754-.173,2.168.795,2.228.836a.122.122,0,0,1-.041.219A6.509,6.509,0,0,1,380.074,409.5Zm-.642-.98a.628.628,0,0,0-.15.016.328.328,0,0,0-.225.164c-.11.2-.045.285-.024.313.22.288,1.27.293,2.036.164A4,4,0,0,0,379.432,408.516Z" transform="translate(-296.192 -199.313)" fill="#407bff"/>
        <path id="Path_5005" data-name="Path 5005" d="M381.866,408.817a.134.134,0,0,1-.058-.014c-.531-.288-1.559-1.413-1.451-1.986a.4.4,0,0,1,.387-.319.677.677,0,0,1,.518.157c.6.487.719,1.97.725,2.032a.12.12,0,0,1-.055.111A.112.112,0,0,1,381.866,408.817Zm-1.037-2.081a.37.37,0,0,0-.055,0c-.159.019-.172.092-.178.123-.064.339.591,1.189,1.119,1.589a2.929,2.929,0,0,0-.608-1.609A.429.429,0,0,0,380.83,406.735Z" transform="translate(-296.673 -198.777)" fill="#407bff"/>
        <path id="Path_5006" data-name="Path 5006" d="M335.846,409.49c-.659,0-1.294-.091-1.508-.387a.462.462,0,0,1,.01-.532.605.605,0,0,1,.386-.285c.85-.227,2.65.791,2.726.834a.121.121,0,0,1,.059.125.124.124,0,0,1-.1.1A9.041,9.041,0,0,1,335.846,409.49Zm-.814-1a.884.884,0,0,0-.235.028.369.369,0,0,0-.238.17c-.087.152-.055.226-.024.269.231.321,1.529.338,2.492.2A5.494,5.494,0,0,0,335.032,408.493Z" transform="translate(-282.807 -199.306)" fill="#407bff"/>
        <path id="Path_5007" data-name="Path 5007" d="M337.971,408.817a.122.122,0,0,1-.05-.01c-.619-.278-1.848-1.389-1.754-1.97.022-.136.119-.306.453-.34a.894.894,0,0,1,.675.208,3.47,3.47,0,0,1,.8,1.979.12.12,0,0,1-.121.133Zm-1.253-2.081c-.024,0-.048,0-.073,0-.219.022-.233.108-.237.137-.056.349.778,1.221,1.41,1.6a2.856,2.856,0,0,0-.678-1.584A.645.645,0,0,0,336.718,406.735Z" transform="translate(-283.379 -198.777)" fill="#407bff"/>
        <path id="Path_5008" data-name="Path 5008" d="M344.4,404.526h-5.136l-.512-11.894h5.136Z" transform="translate(-284.157 -194.607)" fill="#e4897b"/>
        <path id="Path_5009" data-name="Path 5009" d="M387.615,404.526h-5.136L379.9,392.632h5.136Z" transform="translate(-296.537 -194.607)" fill="#e4897b"/>
        <path id="Path_5010" data-name="Path 5010" d="M379.622,408.793h5.77a.448.448,0,0,1,.438.351l1.014,4.565a.755.755,0,0,1-.752.913c-2.015-.034-2.994-.152-5.531-.152-1.561,0-4.778.162-6.934.162-2.109,0-2.437-2.132-1.555-2.325,3.957-.866,5.449-2.06,6.715-3.2A1.244,1.244,0,0,1,379.622,408.793Z" transform="translate(-294.045 -199.469)" fill="#263238"/>
        <path id="Path_5011" data-name="Path 5011" d="M334.191,408.793H339.8a.448.448,0,0,1,.437.351l1.015,4.565a.747.747,0,0,1-.739.914c-2.023-.034-4.947-.153-7.491-.153-2.974,0-5.542.162-9.029.162-2.109,0-2.694-2.132-1.811-2.325,4.018-.879,7.3-.973,10.771-3.114A2.374,2.374,0,0,1,334.191,408.793Z" transform="translate(-279.054 -199.469)" fill="#263238"/>
        <path id="Path_5012" data-name="Path 5012" d="M316.405,159.312a119.342,119.342,0,0,1-12.8-1.7c-2.119-.408-4.242-.862-6.364-1.433a50,50,0,0,1-6.406-2.114c-.538-.221-1.081-.469-1.624-.727a15.445,15.445,0,0,1-1.744-1.017c-1.01-.667-1.874-1.354-2.735-2.041-1.71-1.369-3.3-2.793-4.872-4.231-3.127-2.892-6.093-5.885-8.95-9.034l2.572-2.874,10.144,7.291c1.674,1.207,3.364,2.386,5.027,3.5.829.55,1.675,1.073,2.446,1.507a8.315,8.315,0,0,0,1.007.493c.416.163.836.324,1.279.472a74.933,74.933,0,0,0,11.554,2.588c3.992.632,8.118,1.152,12.1,1.565Z" transform="translate(-263.748 -116.84)" fill="#e4897b"/>
        <g id="Group_3743" data-name="Group 3743" transform="translate(69.175 34.454)">
          <path id="Path_5013" data-name="Path 5013" d="M366.33,158.833c4.814,1.1,9.681,15.179,9.681,15.179l-9.91,7.108s-2.768-6.555-5.491-12.288C357.757,162.824,361.408,157.7,366.33,158.833Z" transform="translate(-359.608 -158.676)" fill="#407bff"/>
          <path id="Path_5014" data-name="Path 5014" d="M366.33,158.833c4.814,1.1,9.681,15.179,9.681,15.179l-9.91,7.108s-2.768-6.555-5.491-12.288C357.757,162.824,361.408,157.7,366.33,158.833Z" transform="translate(-359.608 -158.676)" opacity="0.4"/>
        </g>
        <g id="Group_3744" data-name="Group 3744" transform="translate(71.155 42.301)">
          <path id="Path_5015" data-name="Path 5015" d="M364.4,169.9l-1.965,4.4c2.035,4.391,3.894,8.739,4.391,9.9C366.761,179,365.775,172.557,364.4,169.9Z" transform="translate(-362.44 -169.9)" fill="#407bff"/>
          <path id="Path_5016" data-name="Path 5016" d="M364.4,169.9l-1.965,4.4c2.035,4.391,3.894,8.739,4.391,9.9C366.761,179,365.775,172.557,364.4,169.9Z" transform="translate(-362.44 -169.9)" opacity="0.6"/>
        </g>
        <g id="Group_3745" data-name="Group 3745" transform="translate(44.6 33.278)">
          <path id="Path_5017" data-name="Path 5017" d="M326.981,158.592s-5.467,6.175-.3,44.395h27.473c.189-4.217-2.461-24.789,1.607-44.659a71.6,71.6,0,0,0-9.2-1.161,100.975,100.975,0,0,0-11.678,0A51.554,51.554,0,0,0,326.981,158.592Z" transform="translate(-324.458 -156.995)" fill="#407bff"/>
          <path id="Path_5018" data-name="Path 5018" d="M326.981,158.592s-5.467,6.175-.3,44.395h27.473c.189-4.217-2.461-24.789,1.607-44.659a71.6,71.6,0,0,0-9.2-1.161,100.975,100.975,0,0,0-11.678,0A51.554,51.554,0,0,0,326.981,158.592Z" transform="translate(-324.458 -156.995)" opacity="0.4"/>
        </g>
        <g id="Group_3746" data-name="Group 3746" transform="translate(44.678 42.301)">
          <path id="Path_5019" data-name="Path 5019" d="M324.983,169.9c-.182,1.447-.322,3.16-.413,5.181a28.72,28.72,0,0,0,7.649-3.594Z" transform="translate(-324.57 -169.9)" fill="#407bff"/>
          <path id="Path_5020" data-name="Path 5020" d="M324.983,169.9c-.182,1.447-.322,3.16-.413,5.181a28.72,28.72,0,0,0,7.649-3.594Z" transform="translate(-324.57 -169.9)" opacity="0.6"/>
        </g>
        <g id="Group_3747" data-name="Group 3747" transform="translate(38.663 32.408)">
          <path id="Path_5021" data-name="Path 5021" d="M334.146,166.393c-3.675,3.257-17.716,2.931-17.716,2.931l-.463-13.573a104.169,104.169,0,0,0,14.311,1.038C338.124,156.629,338.179,162.818,334.146,166.393Z" transform="translate(-315.967 -155.75)" fill="#407bff"/>
          <path id="Path_5022" data-name="Path 5022" d="M334.146,166.393c-3.675,3.257-17.716,2.931-17.716,2.931l-.463-13.573a104.169,104.169,0,0,0,14.311,1.038C338.124,156.629,338.179,162.818,334.146,166.393Z" transform="translate(-315.967 -155.75)" opacity="0.4"/>
        </g>
        <path id="Path_5023" data-name="Path 5023" d="M271.632,132.467l-3.526-4.116-3.764,4.169s2.318,3.9,6.007,3.283Z" transform="translate(-261.773 -115.099)" fill="#e4897b"/>
        <path id="Path_5024" data-name="Path 5024" d="M262.023,121.485l-1.356,5.371,2.571,3.6L267,126.286Z" transform="translate(-260.667 -113.034)" fill="#e4897b"/>
        <g id="Group_3748" data-name="Group 3748" transform="translate(54.593 198.028)">
          <path id="Path_5025" data-name="Path 5025" d="M338.751,392.636l.263,6.131h5.138l-.263-6.131Z" transform="translate(-338.751 -392.636)" fill="#ce6f64"/>
          <path id="Path_5026" data-name="Path 5026" d="M385.035,392.636H379.9l1.333,6.131h5.138Z" transform="translate(-351.129 -392.636)" fill="#ce6f64"/>
        </g>
        <path id="Path_5027" data-name="Path 5027" d="M341.761,118.881c-4.607-2.129-6.064-11.422,7.191-9.12,0,0-2,2.214,2.06,3.612S351.673,123.462,341.761,118.881Z" transform="translate(-284.076 -109.397)" fill="#263238"/>
        <path id="Path_5028" data-name="Path 5028" d="M350.9,129.169c-1.319,4.924-1.842,7.872-4.88,9.92-4.57,3.079-10.261-.455-10.439-5.674-.16-4.7,2.025-11.96,7.309-12.953A6.952,6.952,0,0,1,350.9,129.169Z" transform="translate(-283.201 -112.687)" fill="#e4897b"/>
        <path id="Path_5029" data-name="Path 5029" d="M350.6,113.163c3.137,1.754,7.389,2.8,6.961,5.288-.522,3.04,2.571,1.138,1.851,5.667-.47,2.957-5.925,11.919-9.766,11.482-5.772-.658-5.04-9.475-5.06-14.108C344.579,118.76,344.451,109.723,350.6,113.163Z" transform="translate(-285.909 -110.298)" fill="#263238"/>
        <path id="Path_5030" data-name="Path 5030" d="M342.976,119.111c-1.4.33-3.251,8.39,2.165,9.128C351.375,129.089,342.976,119.111,342.976,119.111Z" transform="translate(-284.986 -112.319)" fill="#263238"/>
        <path id="Path_5031" data-name="Path 5031" d="M341.594,121.046c-1.714.151-5.579-1.911-5.117-5.013C336.477,116.033,338.94,119.662,341.594,121.046Z" transform="translate(-283.462 -111.393)" fill="#263238"/>
        <path id="Path_5032" data-name="Path 5032" d="M345.475,131.948a5.765,5.765,0,0,1-2.534,2.7c-1.477.769-2.308-.356-1.974-1.834.3-1.33,1.433-3.334,2.953-3.5C345.417,129.15,346.088,130.55,345.475,131.948Z" transform="translate(-284.803 -115.384)" fill="#e4897b"/>
        <path id="Path_5033" data-name="Path 5033" d="M358.446,122.745a6.874,6.874,0,0,0,4.045-5.121S364.8,124.067,358.446,122.745Z" transform="translate(-290.083 -111.872)" fill="#263238"/>
        <path id="Path_5034" data-name="Path 5034" d="M365.353,124.216a3.542,3.542,0,0,0-3.346-.33S364.16,121.092,365.353,124.216Z" transform="translate(-291.155 -113.41)" fill="#263238"/>
        <g id="Group_3749" data-name="Group 3749" transform="translate(56.564 79.27)">
          <path id="Path_5035" data-name="Path 5035" d="M341.57,222.777s5.829,39.252,9.029,53.957c3.5,16.1,16.706,69.744,16.706,69.744h9.407s-8.705-52.341-10.7-68.284c-2.17-17.3-6.71-55.417-6.71-55.417Z" transform="translate(-341.57 -222.777)" fill="#407bff"/>
          <path id="Path_5036" data-name="Path 5036" d="M341.57,222.777s5.829,39.252,9.029,53.957c3.5,16.1,16.706,69.744,16.706,69.744h9.407s-8.705-52.341-10.7-68.284c-2.17-17.3-6.71-55.417-6.71-55.417Z" transform="translate(-341.57 -222.777)" fill="#fff" opacity="0.5"/>
        </g>
        <g id="Group_3750" data-name="Group 3750" transform="translate(80.795 199.506)">
          <path id="Path_5037" data-name="Path 5037" d="M376.23,394.75c-.04,0,.972,3.613.972,3.613h10.584l-.194-3.224Z" transform="translate(-376.228 -394.75)" fill="#407bff"/>
          <path id="Path_5038" data-name="Path 5038" d="M376.23,394.75c-.04,0,.972,3.613.972,3.613h10.584l-.194-3.224Z" transform="translate(-376.228 -394.75)" opacity="0.1"/>
        </g>
        <g id="Group_3751" data-name="Group 3751" transform="translate(58.731 93.203)">
          <path id="Path_5039" data-name="Path 5039" d="M346.186,242.757c6.74,1.321,6.027,26.456,5.216,39.383-1.944-9.138-4.789-26.722-6.733-39.2A2.3,2.3,0,0,1,346.186,242.757Z" transform="translate(-344.669 -242.705)" fill="#407bff"/>
          <path id="Path_5040" data-name="Path 5040" d="M346.186,242.757c6.74,1.321,6.027,26.456,5.216,39.383-1.944-9.138-4.789-26.722-6.733-39.2A2.3,2.3,0,0,1,346.186,242.757Z" transform="translate(-344.669 -242.705)" fill="#fff" opacity="0.4"/>
        </g>
        <g id="Group_3752" data-name="Group 3752" transform="translate(46.455 79.27)">
          <path id="Path_5041" data-name="Path 5041" d="M327.475,222.777s-.707,38.4-.148,54.065c.581,16.292,6.271,69.636,6.271,69.636h8.7s.32-52.392.706-68.393c.422-17.443,2.528-55.309,2.528-55.309Z" transform="translate(-327.112 -222.777)" fill="#407bff"/>
          <path id="Path_5042" data-name="Path 5042" d="M327.475,222.777s-.707,38.4-.148,54.065c.581,16.292,6.271,69.636,6.271,69.636h8.7s.32-52.392.706-68.393c.422-17.443,2.528-55.309,2.528-55.309Z" transform="translate(-327.112 -222.777)" fill="#fff" opacity="0.5"/>
        </g>
        <g id="Group_3753" data-name="Group 3753" transform="translate(48.847 82.137)">
          <path id="Path_5043" data-name="Path 5043" d="M336.439,341.462a.088.088,0,0,1-.087-.079c-1.533-14.764-5.15-50.488-5.607-63.3-.466-13.082-.043-42.432.1-51.115a.088.088,0,0,1,.087-.087h0a.087.087,0,0,1,.086.089c-.141,8.683-.564,38.029-.1,51.107.457,12.811,4.073,48.53,5.606,63.293a.087.087,0,0,1-.078.1Z" transform="translate(-330.532 -226.877)" fill="#407bff"/>
          <path id="Path_5044" data-name="Path 5044" d="M336.439,341.462a.088.088,0,0,1-.087-.079c-1.533-14.764-5.15-50.488-5.607-63.3-.466-13.082-.043-42.432.1-51.115a.088.088,0,0,1,.087-.087h0a.087.087,0,0,1,.086.089c-.141,8.683-.564,38.029-.1,51.107.457,12.811,4.073,48.53,5.606,63.293a.087.087,0,0,1-.078.1Z" transform="translate(-330.532 -226.877)" fill="#fff" opacity="0.4"/>
        </g>
        <g id="Group_3754" data-name="Group 3754" transform="translate(51.265 199.506)">
          <path id="Path_5045" data-name="Path 5045" d="M333.993,394.75c-.04,0,.491,3.613.491,3.613h10.584l.286-3.224Z" transform="translate(-333.991 -394.75)" fill="#407bff"/>
          <path id="Path_5046" data-name="Path 5046" d="M333.993,394.75c-.04,0,.491,3.613.491,3.613h10.584l.286-3.224Z" transform="translate(-333.991 -394.75)" opacity="0.1"/>
        </g>
      </g>
    </g>
  </g>
</svg>
