<svg xmlns="http://www.w3.org/2000/svg" width="235.538" height="285.036" viewBox="0 0 235.538 285.036">
  <g id="Group_2735" data-name="Group 2735" transform="translate(-535.028 -367.984)">
    <rect id="Rectangle_809" data-name="Rectangle 809" width="27.582" height="27.582" transform="translate(639.007 487.915)" fill="#1267b1"/>
    <path id="Path_4170" data-name="Path 4170" d="M770.564,533.258V464.9L652.8,367.984,535.033,464.9v67.827c-.009.517,0,2.02,0,2.537a117.767,117.767,0,0,0,235.534.021C770.564,534.768,770.57,533.775,770.564,533.258Zm-48.271,2.023a69.466,69.466,0,1,1-138.931,0c0-.517-.1-4.262-.1-4.778V487.67L652.8,430.452l69.531,57.217v46.073C722.34,534.26,722.293,534.765,722.293,535.282Z" transform="translate(0 0)" fill="#03254c"/>
  </g>
</svg>
